<?xml version="1.0" encoding="UTF-8"?><svg id="Layer_2" xmlns="http://www.w3.org/2000/svg" viewBox="0 0 993.45 800.96"><defs><style>.cls-1{stroke:#2e3192;}.cls-1,.cls-2{stroke-width:3.05px;}.cls-1,.cls-2,.cls-3,.cls-4,.cls-5,.cls-6,.cls-7,.cls-8{fill:none;}.cls-1,.cls-2,.cls-3,.cls-5,.cls-6,.cls-7,.cls-8{stroke-linecap:round;}.cls-1,.cls-2,.cls-4,.cls-5,.cls-8{stroke-miterlimit:10;}.cls-2{stroke:#8754af;}.cls-9{fill:#f89f4f;}.cls-10{fill:#f9e0d2;}.cls-11{fill:#f26d6d;}.cls-12{fill:#fdc854;}.cls-13{fill:#fff;}.cls-14{fill:#ffe9fc;}.cls-15{fill:#ffcaf5;}.cls-16{fill:#ffc5ae;}.cls-17{fill:#fb9c98;}.cls-18{fill:#efeefe;}.cls-19{fill:#d033a8;}.cls-20{fill:#bbb4f8;}.cls-21{fill:#4463cd;}.cls-22{fill:#653087;}.cls-23{fill:#2e3192;}.cls-24{fill:#45b4ad;}.cls-3{stroke:#efeefe;}.cls-3,.cls-6,.cls-7{stroke-linejoin:round;}.cls-3,.cls-8{stroke-width:11.1px;}.cls-4{stroke:#191245;stroke-width:1.12px;}.cls-5{stroke:#f26d6d;stroke-width:2.65px;}.cls-6{stroke:#c5c2f9;stroke-width:4.44px;}.cls-7{stroke:#fff;stroke-width:3.9px;}.cls-8{stroke:#bbb4f8;}</style></defs><g id="_ÎÓÈ_1"><g><path class="cls-14" d="M880.78,793.97c98.6-122.21,101.45-186.09,85.03-221.94-16.46-35.94-48.79-36.11-69.18-82.15-25.94-58.58,11.72-91.47,2.88-165.74-7.58-63.66-47.94-146.1-112.41-170.06-76.97-28.6-124.56,49.85-198.88,21.62-72.54-27.56-54.03-112.48-136.91-152.77C390.22-6.76,303.28,2,262.51,45.99c-30.22,32.6-15.62,63.58-46.12,110.97-39,60.62-94.64,39.49-116.74,82.15-32.16,62.1,65.52,121.98,44.68,213.3-15.45,67.7-77.4,70.98-109.53,147-28.88,68.32-11.12,142.02,10.09,196,278.63-.48,557.26-.96,835.89-1.44Z"/><path class="cls-22" d="M560.44,275.33c5.46-11.27,21.79-48.4,12.15-93.43-12.07-56.39-59.71-101.14-101.86-100.58-55.75,.73-119.73,80.97-108.27,194.02h197.99Z"/><circle class="cls-17" cx="433.46" cy="172.55" r="15.82" transform="translate(-27.48 244.63) rotate(-30.59)"/><path class="cls-11" d="M424.58,173.31c-.29-4.9,2.24-9.21,5.65-9.63,3.41-.42,6.41,3.21,6.7,8.11,.29,4.9-2.24,9.21-5.65,9.63-3.41,.42-6.41-3.21-6.7-8.11Z"/><path class="cls-21" d="M670.36,794.39c-4.72-22.05-13.77-61.19-21.31-85.58-2.17-7.03-19.73-71.85-25.89-72.04-.01,0-135.95-4.29-135.95-4.29-2.27,53.97-4.54,107.94-6.8,161.92h189.96Z"/><path class="cls-23" d="M605.69,720.8c5.42,20.27,11.62,49.36,16.43,73.59h48.24c-4.72-22.05-13.77-61.19-21.31-85.58-2.17-7.03-19.73-71.85-25.89-72.04-.01,0-135.95-4.29-135.95-4.29-.02,.53-.04,1.05-.07,1.58,39.8,1.45,92.66,3.39,92.67,3.39,6.16,.23,23.72,75.22,25.89,83.36Z"/><path class="cls-21" d="M508.13,794.39c5.46-32.61,9.67-72.65,10.41-120.22l-172.73,7.63s-32.15,36.36-54.67,112.6h217Z"/><path class="cls-10" d="M395.47,296.02l-22.48,5.25c-10.4,2.43-19.17,9.37-23.89,18.95-17.17,34.81-58.1,125.44-75.27,229.77,0,0-31.59,80.36-40.54,134.44-2.41,14.58,6.97,28.51,21.37,31.84l1.91,.44,20.8-28.5,74.38-123.69,43.71-268.51Z"/><path class="cls-16" d="M590.85,335.81s7.42,176.85,25.47,265.11c0,0-125.99,41.32,107.45,50.06,18.38,.69,33.65-14.05,33.65-32.44h0c-71.2-21.64,13.53-33.54-57.68-55.19-19.69-65.42-28.09-175.4-70.32-240.31l-38.58,12.76Z"/><path class="cls-10" d="M650.33,713.17c6.33-81.37,6.66-176.63-6.61-281.85-3.75-29.75-8.33-58.27-13.51-85.5-3.77-19.79-17.96-35.98-37.09-42.3-34.23-11.32-68.46-22.63-102.69-33.95l-109.68,30.55c-13.8,59.47-26.12,127.04-34.2,201.69-7.75,71.6-12.94,137.05-12.48,196.06,37.48,10.28,86.2,20.21,139.29,24.15,70.22,5.21,130.69-.74,176.95-8.85Z"/><path class="cls-16" d="M650.33,713.17c6.33-81.37,6.66-176.63-6.61-281.85-4.81-38.14,3.33-78.36-14.31-108.27l-.06-.1c-3.48-5.92-8.95-10.41-15.47-12.57-25.21-8.33-50.42-16.67-75.63-25-16.89,12.88-22.84,30.5-9.12,54.56,40.3,70.7,19.02,273.23,3.42,383.99,45.29-.4,85.09-5.03,117.77-10.75Z"/><path class="cls-17" d="M454.94,257.03l-.64-61.76,61.33-2.98,.78,68.98c1.37,12.49,16.59,22.36,28.52,26.31l21.55,7.13c-2.26,19.08-21.75,62.55-40.41,65.37-35.36,5.34-79.15-54.38-99.1-72.83h0c13.16-3.67,27.13-16.57,27.97-30.21Z"/><path class="cls-11" d="M515.95,219.87l-.31-27.58-61.33,2.98,.44,42.93c5.06,3.49,10.74,5.81,16.95,6.51,17.24,1.93,33.71-9.16,44.25-24.84Z"/><path class="cls-17" d="M453.69,129.11c-2.21,1.6-18.98,14.11-23.2,35.75-5.6,28.74,12.15,67.44,41.2,70.7,27.79,3.12,53.57-27.6,55.79-56.83,1.97-25.9-14.16-56.04-37.85-60.47-16.65-3.11-31.38,7.55-35.94,10.84Z"/><path class="cls-13" d="M460.36,217.64c-.33,2.53,4.56,5.48,8.57,6.2,7.01,1.26,14.97-3.65,18.5-12.6-21.36,1.25-26.75,3.93-27.07,6.4Z"/><path class="cls-5" d="M470.48,169.88c-.15,1.65-2.69,14.58-3.91,20.72-.36,1.81,.76,3.57,2.55,4.02l5.7,1.43"/><path class="cls-11" d="M514.28,197.11c0-3.77-4.43-6.83-9.91-6.83s-9.91,3.06-9.91,6.83,4.43,6.83,9.91,6.83,9.91-3.06,9.91-6.83Z"/><path class="cls-11" d="M439.38,190.28c-3.15,0-5.95,1.02-7.77,2.6,.88,3.53,2.02,7,3.4,10.35,1.32,.45,2.8,.71,4.36,.71,5.47,0,9.91-3.06,9.91-6.83s-4.43-6.83-9.91-6.83Z"/><path class="cls-1" d="M459.39,165.44s-8.39-7.83-13.48,0"/><path class="cls-1" d="M498.6,165.44s-8.39-7.83-13.48,0"/><circle class="cls-17" cx="525.53" cy="172.55" r="15.82" transform="translate(148.91 577.66) rotate(-65.26)"/><path class="cls-11" d="M537.54,173.31c.29-4.9-2.24-9.21-5.65-9.63-3.41-.42-6.41,3.21-6.7,8.11-.29,4.9,2.24,9.21,5.65,9.63,3.41,.42,6.41-3.21,6.7-8.11Z"/><path class="cls-13" d="M541.97,185.86c0-2.44-1.98-4.41-4.41-4.41s-4.41,1.98-4.41,4.41,1.98,4.41,4.41,4.41,4.41-1.98,4.41-4.41Z"/><path class="cls-22" d="M427.36,101.77c-5.38,13.52,25.56,36.34,28.61,38.56,26.36,19.14,66.99,28.8,77.13,14.93,7.45-10.2-2.56-31.75-14.1-43.95-28.05-29.68-85.3-25.47-91.64-9.54Z"/><path class="cls-2" d="M443.37,116.28c6.13,7.71,18.56,21.18,38.72,30.58,15.9,7.41,30.33,9.36,39.46,9.86"/><line class="cls-8" x1="5.55" y1="795.41" x2="888.88" y2="795.41"/><line class="cls-8" x1="929.58" y1="795.41" x2="987.9" y2="795.41"/><path class="cls-17" d="M251.83,683.71c17.69-23.86,24.43-27.71,27.21-26.33,3.82,1.9,4.37,15.85-4.46,23.73-6.18,5.52-15.3,6.58-22.75,2.6Z"/><path class="cls-17" d="M762.82,625.92c-10.91-27.62-16.43-33.08-19.47-32.47-4.18,.84-8.32,14.18-1.83,24.08,4.55,6.93,13.08,10.31,21.3,8.4Z"/><g><path class="cls-19" d="M293,376.91h424.03c8.85,0,16.03,7.18,16.03,16.03v287.63H276.97V392.94c0-8.85,7.18-16.03,16.03-16.03Z"/><rect class="cls-15" x="289.22" y="388.41" width="431.97" height="274.06"/><path class="cls-19" d="M483.97,669.93h-224.39c0,15.1,0,27.34,36.23,27.34h418.44c36.23,0,36.23-12.24,36.23-27.34H483.97Z"/><circle class="cls-4" cx="716.36" cy="683.6" r="7.28" transform="translate(-273.56 706.77) rotate(-45)"/></g><path class="cls-17" d="M240.52,695.96c-1.22,11.29,6.68,21.58,17.92,23.22,6.18,.9,13.45,1.04,21.28-.62,11.42-2.42,20.24-3.96,24.73-11.48,2.72-4.57,4.01-11.54,1.42-16.77-1.51-3.06-5.2-6.91-8.74-9.59h-.01c-4.55-3.46-21.33-8.58-38.89-.46-7.34,3.39-16.81,7.47-17.7,15.71Z"/><path class="cls-17" d="M764.36,634.53c-2.36,11.11-13.07,18.43-24.26,16.48-6.15-1.07-13.11-3.21-20.02-7.22-10.1-5.85-18-10.07-19.92-18.61-1.16-5.19-.21-12.22,3.88-16.38,2.39-2.43,7.09-4.94,11.29-6.39h.02c5.4-1.86,22.94-1.5,37.09,11.68,5.92,5.51,13.65,12.33,11.93,20.44Z"/><g><rect class="cls-9" x="183.1" y="226.71" width="115.04" height="13.27"/><path class="cls-9" d="M178.36,218.58h31.07c5.88,0,10.65,4.77,10.65,10.65v9.22h-52.37v-9.22c0-5.88,4.77-10.65,10.65-10.65Z"/><rect class="cls-13" x="172.15" y="231.69" width="121.74" height="6.77"/><polygon class="cls-12" points="298.13 320.54 167.71 320.54 165.32 238.45 300.52 238.45 298.13 320.54"/></g><g><g><path class="cls-3" d="M669.63,77.53c-6.78-8.59-17.27-14.1-29.06-14.1s-22.28,5.51-29.06,14.1"/><path class="cls-3" d="M689.89,56.83c-12.06-13.63-29.69-22.23-49.32-22.23s-37.26,8.59-49.32,22.23"/><path class="cls-3" d="M710.24,36.03c-17.33-18.74-42.13-30.48-69.68-30.48s-52.34,11.74-69.68,30.48"/></g><circle class="cls-18" cx="640.57" cy="98.23" r="11.84" transform="translate(-7.46 103.88) rotate(-9.22)"/></g><path class="cls-13" d="M611.65,500.57v-.11c0-25.52-20.69-46.21-46.21-46.21h0c-10.6,0-20.37,3.57-28.17,9.58-7.34-26.82-31.88-46.52-61.03-46.52h-4.2c-31.63,0-57.83,23.2-62.53,53.52-30.73,3.28-54.67,29.29-54.67,60.89h0c0,33.82,27.42,61.24,61.24,61.24h123.24v-.19h67.7c25.52,0,46.21-20.69,46.21-46.21h0c0-23.96-18.23-43.66-41.58-45.98Z"/><g><rect class="cls-13" x="391.73" y="613.2" width="211.21" height="26.51"/><rect class="cls-20" x="391.73" y="613.2" width="138.41" height="26.51"/></g><g><polyline class="cls-6" points="522.61 514.62 508.29 531.8 508.29 495.54"/><line class="cls-6" x1="493.97" y1="514.62" x2="508.29" y2="531.8"/></g><polyline class="cls-6" points="488 537.77 488 543.97 528.57 543.97 528.57 537.77"/><circle class="cls-6" cx="508.29" cy="523.21" r="39.94"/><path class="cls-24" d="M836.75,256.79c-8.58-.34-18.95-1.48-30.44-4.32-7.98-1.97-15.04-4.41-21.08-6.88-6.14,2.22-13.29,4.36-21.35,6.01-11.59,2.36-22,3.07-30.59,3.06-1.12,6.91-5.33,37.53,14.52,65.52,12.07,17.01,27.48,25.23,35.36,28.75,8.02-3.19,23.76-10.77,36.52-27.27,20.98-27.14,18.05-57.91,17.21-64.86"/><path class="cls-24" d="M827.55,256.14c-6.45-.65-13.6-1.78-21.24-3.67-7.98-1.97-15.04-4.41-21.08-6.88-6.14,2.22-13.29,4.36-21.35,6.01-11.59,2.36-22,3.07-30.59,3.06-1.12,6.91-5.33,37.53,14.52,65.52,8.14,11.48,17.8,18.95,25.64,23.68,8.04-3.2,23.74-10.78,36.47-27.25,17.96-23.23,18.4-49.12,17.62-60.46Z"/><polyline class="cls-7" points="765.21 286.15 784.3 306.04 804.46 286.7"/></g></g></svg>