<svg id="Layer_2" xmlns="http://www.w3.org/2000/svg" viewBox="0 0 500 403.12" width="500" height="403.12"><defs><style>.cls-1{stroke:#2e3192;}.cls-1,.cls-2{stroke-width:3.05px;}.cls-1,.cls-2,.cls-3,.cls-4,.cls-5,.cls-6,.cls-7,.cls-8{fill:none;}.cls-1,.cls-2,.cls-3,.cls-5,.cls-6,.cls-7,.cls-8{stroke-linecap:round;}.cls-1,.cls-2,.cls-4,.cls-5,.cls-8{stroke-miterlimit:10;}.cls-2{stroke:#8754af;}.cls-9{fill:#f89f4f;}.cls-10{fill:#f9e0d2;}.cls-11{fill:#f26d6d;}.cls-12{fill:#fdc854;}.cls-13{fill:#fff;}.cls-14{fill:#ffe9fc;}.cls-15{fill:#ffcaf5;}.cls-16{fill:#ffc5ae;}.cls-17{fill:#fb9c98;}.cls-18{fill:#efeefe;}.cls-19{fill:#d033a8;}.cls-20{fill:#bbb4f8;}.cls-21{fill:#4463cd;}.cls-22{fill:#653087;}.cls-23{fill:#2e3192;}.cls-24{fill:#45b4ad;}.cls-3{stroke:#efeefe;}.cls-3,.cls-6,.cls-7{stroke-linejoin:round;}.cls-3,.cls-8{stroke-width:11.1px;}.cls-4{stroke:#191245;stroke-width:1.12px;}.cls-5{stroke:#f26d6d;stroke-width:2.65px;}.cls-6{stroke:#c5c2f9;stroke-width:4.44px;}.cls-7{stroke:#fff;stroke-width:3.9px;}.cls-8{stroke:#bbb4f8;}</style></defs><g id="_ÎÓÈ_1"><g><path class="cls-14" d="M443.294 399.602c49.625 -61.508 51.059 -93.658 42.795 -111.702 -8.284 -18.088 -24.556 -18.174 -34.818 -41.346 -13.056 -29.483 5.899 -46.037 1.449 -83.416 -3.815 -32.04 -24.128 -73.532 -56.576 -85.591 -38.739 -14.394 -62.691 25.089 -100.096 10.881 -36.509 -13.871 -27.193 -56.611 -68.906 -76.889C196.396 -3.402 152.64 1.007 132.12 23.147c-15.21 16.407 -7.861 32 -23.212 55.851 -19.629 30.51 -47.632 19.875 -58.755 41.346 -16.186 31.255 32.976 61.392 22.487 107.353 -7.776 34.073 -38.955 35.724 -55.126 73.985 -14.535 34.385 -5.597 71.478 5.078 98.646l420.701 -0.725Z"/><path class="cls-22" d="M282.068 138.573c2.748 -5.672 10.967 -24.36 6.115 -47.023 -6.075 -28.381 -30.052 -50.903 -51.266 -50.622 -28.059 0.367 -60.26 40.752 -54.492 97.65h99.648Z"/><path class="cls-17" cx="433.46" cy="172.55" r="15.82" transform="rotate(-30.59 433.522 172.557)" d="M226.121 86.844A7.962 7.962 0 0 1 218.159 94.806A7.962 7.962 0 0 1 210.197 86.844A7.962 7.962 0 0 1 226.121 86.844z"/><path class="cls-11" d="M213.69 87.226c-0.146 -2.466 1.127 -4.635 2.844 -4.847 1.716 -0.211 3.226 1.616 3.372 4.082 0.146 2.466 -1.127 4.635 -2.844 4.847 -1.716 0.211 -3.226 -1.616 -3.372 -4.082Z"/><path class="cls-21" d="M337.39 399.814c-2.376 -11.098 -6.93 -30.797 -10.725 -43.072 -1.092 -3.538 -9.93 -36.162 -13.03 -36.257l-68.423 -2.159c-1.142 27.163 -2.285 54.326 -3.422 81.494h95.606Z"/><path class="cls-23" d="M304.842 362.776c2.728 10.202 5.848 24.843 8.269 37.038h24.279c-2.376 -11.098 -6.93 -30.797 -10.725 -43.072 -1.092 -3.538 -9.93 -36.162 -13.03 -36.257l-68.423 -2.159c-0.01 0.267 -0.02 0.528 -0.035 0.795 20.031 0.73 46.635 1.706 46.64 1.706 3.1 0.116 11.938 37.858 13.03 41.955Z"/><path class="cls-21" d="M255.74 399.814c2.748 -16.413 4.867 -36.564 5.239 -60.506l-86.934 3.84s-16.181 18.3 -27.515 56.671h109.215Z"/><path class="cls-10" d="m199.039 148.986 -11.314 2.642a17.945 17.945 0 0 0 -12.024 9.537c-8.642 17.52 -29.242 63.134 -37.883 115.642 0 0 -15.899 40.445 -20.404 67.663 -1.213 7.338 3.508 14.349 10.755 16.025l0.961 0.221 10.469 -14.344 37.435 -62.253 21.999 -135.14Z"/><path class="cls-16" d="M297.373 169.012s3.734 89.008 12.819 133.429c0 0 -63.41 20.796 54.079 25.195 9.251 0.347 16.936 -7.071 16.936 -16.327 -35.835 -10.891 6.81 -16.881 -29.03 -27.777 -9.91 -32.926 -14.138 -88.278 -35.392 -120.947l-19.417 6.422Z"/><path class="cls-10" d="M327.309 358.936c3.186 -40.953 3.352 -88.897 -3.327 -141.854a696.014 696.014 0 0 0 -6.8 -43.032 27.918 27.918 0 0 0 -18.667 -21.289c-17.228 -5.697 -34.456 -11.39 -51.684 -17.087l-55.202 15.376a857.074 857.074 0 0 0 -17.213 101.51c-3.901 36.036 -6.513 68.977 -6.281 98.676 18.864 5.174 43.384 10.172 70.104 12.155 35.341 2.622 65.776 -0.372 89.058 -4.454Z"/><path class="cls-16" d="M327.309 358.936c3.186 -40.953 3.352 -88.897 -3.327 -141.854 -2.421 -19.196 1.676 -39.438 -7.202 -54.492l-0.03 -0.05c-1.751 -2.98 -4.505 -5.239 -7.786 -6.326 -12.688 -4.192 -25.376 -8.39 -38.064 -12.582 -8.501 6.482 -11.495 15.351 -4.59 27.46 20.283 35.583 9.573 137.516 1.721 193.261 22.794 -0.201 42.826 -2.532 59.273 -5.41Z"/><path class="cls-17" d="m228.97 129.362 -0.322 -31.084 30.867 -1.5 0.393 34.717c0.69 6.286 8.35 11.254 14.354 13.242l10.846 3.589c-1.137 9.603 -10.947 31.481 -20.338 32.9 -17.797 2.688 -39.836 -27.369 -49.877 -36.655 6.623 -1.847 13.654 -8.34 14.077 -15.205Z"/><path class="cls-11" d="m259.676 110.66 -0.156 -13.881 -30.867 1.5 0.221 21.607c2.547 1.757 5.405 2.924 8.531 3.276 8.677 0.971 16.966 -4.61 22.271 -12.502Z"/><path class="cls-17" d="M228.341 64.981c-1.112 0.805 -9.553 7.102 -11.676 17.993 -2.818 14.465 6.115 33.942 20.736 35.583 13.987 1.57 26.962 -13.891 28.079 -28.602 0.991 -13.035 -7.127 -28.205 -19.05 -30.434 -8.38 -1.565 -15.793 3.8 -18.088 5.456Z"/><path class="cls-13" d="M231.698 109.537c-0.166 1.273 2.295 2.758 4.313 3.12 3.528 0.634 7.534 -1.837 9.311 -6.342 -10.75 0.629 -13.463 1.978 -13.624 3.221Z"/><path class="cls-5" d="M236.791 85.5c-0.075 0.83 -1.354 7.338 -1.968 10.428 -0.181 0.911 0.383 1.797 1.283 2.023l2.869 0.72"/><path class="cls-11" d="M258.835 99.205c0 -1.897 -2.23 -3.438 -4.988 -3.438s-4.988 1.54 -4.988 3.438 2.23 3.438 4.988 3.438 4.988 -1.54 4.988 -3.438Z"/><path class="cls-11" d="M221.138 95.767c-1.585 0 -2.995 0.513 -3.911 1.309 0.443 1.777 1.017 3.523 1.711 5.209 0.664 0.226 1.409 0.357 2.194 0.357 2.753 0 4.988 -1.54 4.988 -3.438s-2.23 -3.438 -4.988 -3.438Z"/><path class="cls-1" d="M231.209 83.265s-4.223 -3.941 -6.784 0"/><path class="cls-1" d="M250.944 83.265s-4.223 -3.941 -6.784 0"/><path class="cls-17" cx="525.53" cy="172.55" r="15.82" transform="rotate(-65.26 525.565 172.542)" d="M272.46 86.844A7.962 7.962 0 0 1 264.497 94.806A7.962 7.962 0 0 1 256.535 86.844A7.962 7.962 0 0 1 272.46 86.844z"/><path class="cls-11" d="M270.542 87.226c0.146 -2.466 -1.127 -4.635 -2.844 -4.847 -1.716 -0.211 -3.226 1.616 -3.372 4.082 -0.146 2.466 1.127 4.635 2.844 4.847 1.716 0.211 3.226 -1.616 3.372 -4.082Z"/><path class="cls-13" d="M272.772 93.543c0 -1.228 -0.997 -2.22 -2.22 -2.22s-2.22 0.997 -2.22 2.22 0.997 2.22 2.22 2.22 2.22 -0.997 2.22 -2.22Z"/><path class="cls-22" d="M215.089 51.22c-2.708 6.805 12.864 18.29 14.399 19.407 13.267 9.633 33.716 14.495 38.819 7.514 3.75 -5.134 -1.288 -15.98 -7.096 -22.12 -14.117 -14.938 -42.931 -12.819 -46.122 -4.801Z"/><path class="cls-2" d="M223.147 58.523c3.085 3.88 9.341 10.66 19.488 15.391 8.002 3.729 15.265 4.711 19.86 4.963"/><path class="cls-8" x1="5.55" y1="795.41" x2="888.88" y2="795.41" d="M2.793 400.327L447.37 400.327"/><path class="cls-8" x1="929.58" y1="795.41" x2="987.9" y2="795.41" d="M467.854 400.327L497.207 400.327"/><path class="cls-17" d="M126.745 344.109c8.903 -12.009 12.296 -13.946 13.695 -13.252 1.923 0.956 2.199 7.977 -2.245 11.943 -3.11 2.778 -7.7 3.312 -11.45 1.309Z"/><path class="cls-17" d="M383.925 315.023c-5.491 -13.901 -8.269 -16.649 -9.799 -16.342 -2.104 0.423 -4.187 7.137 -0.921 12.119 2.29 3.488 6.583 5.189 10.72 4.228Z"/><g><path class="cls-19" d="M147.466 189.698h213.413c4.454 0 8.068 3.614 8.068 8.068v144.763H139.398V197.765c0 -4.454 3.614 -8.068 8.068 -8.068Z"/><path class="cls-15" x="289.22" y="388.41" width="431.97" height="274.06" d="M145.563 195.485H362.972V333.419H145.563V195.485z"/><path class="cls-19" d="M243.58 337.173H130.646c0 7.6 0 13.76 18.234 13.76h210.599c18.234 0 18.234 -6.16 18.234 -13.76H243.58Z"/><path class="cls-4" cx="716.36" cy="683.6" r="7.28" transform="rotate(-45 716.367 683.601)" d="M364.206 344.054A3.664 3.664 0 0 1 360.542 347.718A3.664 3.664 0 0 1 356.878 344.054A3.664 3.664 0 0 1 364.206 344.054z"/></g><path class="cls-17" d="M121.053 350.274c-0.614 5.682 3.362 10.861 9.019 11.687 3.11 0.453 6.769 0.523 10.71 -0.312 5.748 -1.218 10.187 -1.993 12.447 -5.778 1.369 -2.3 2.018 -5.808 0.715 -8.44 -0.76 -1.54 -2.617 -3.478 -4.399 -4.827h-0.005c-2.29 -1.741 -10.735 -4.318 -19.573 -0.232 -3.694 1.706 -8.46 3.76 -8.908 7.907Z"/><path class="cls-17" d="M384.7 319.357c-1.188 5.592 -6.578 9.276 -12.21 8.294 -3.095 -0.539 -6.598 -1.616 -10.076 -3.634 -5.083 -2.944 -9.059 -5.068 -10.026 -9.366 -0.584 -2.612 -0.106 -6.15 1.953 -8.244 1.203 -1.223 3.568 -2.486 5.682 -3.216h0.01c2.718 -0.936 11.546 -0.755 18.667 5.879 2.98 2.773 6.87 6.206 6.004 10.287Z"/><g><path class="cls-9" x="183.1" y="226.71" width="115.04" height="13.27" d="M92.154 114.102H150.053V120.781H92.154V114.102z"/><path class="cls-9" d="M89.768 110.011h15.637c2.959 0 5.36 2.401 5.36 5.36v4.64h-26.358v-4.64c0 -2.959 2.401 -5.36 5.36 -5.36Z"/><path class="cls-13" x="172.15" y="231.69" width="121.74" height="6.77" d="M86.643 116.609H147.914V120.016H86.643V116.609z"/><path class="cls-12" points="298.13 320.54 167.71 320.54 165.32 238.45 300.52 238.45 298.13 320.54" d="M150.048 161.327L84.408 161.327L83.205 120.011L151.251 120.011L150.048 161.327Z"/></g><g><g><path class="cls-3" d="M337.022 39.021c-3.412 -4.323 -8.692 -7.096 -14.626 -7.096s-11.213 2.773 -14.626 7.096"/><path class="cls-3" d="M347.219 28.602C341.15 21.742 332.276 17.414 322.397 17.414s-18.753 4.323 -24.823 11.188"/><path class="cls-3" d="M357.461 18.134c-8.722 -9.432 -21.204 -15.34 -35.07 -15.34s-26.343 5.909 -35.07 15.34"/></g><path class="cls-18" cx="640.57" cy="98.23" r="11.84" transform="rotate(-9.22 640.417 98.199)" d="M328.356 49.439A5.959 5.959 0 0 1 322.397 55.398A5.959 5.959 0 0 1 316.438 49.439A5.959 5.959 0 0 1 328.356 49.439z"/></g><path class="cls-13" d="M307.841 251.935v-0.055c0 -12.844 -10.413 -23.257 -23.257 -23.257 -5.335 0 -10.252 1.797 -14.178 4.822 -3.694 -13.498 -16.045 -23.413 -30.716 -23.413h-2.114c-15.919 0 -29.106 11.676 -31.471 26.936 -15.466 1.651 -27.515 14.742 -27.515 30.646 0 17.021 13.8 30.822 30.822 30.822h62.026v-0.096h34.073c12.844 0 23.257 -10.413 23.257 -23.257 0 -12.059 -9.175 -21.974 -20.927 -23.142Z"/><g><path class="cls-13" x="391.73" y="613.2" width="211.21" height="26.51" d="M197.156 308.621H303.458V321.964H197.156V308.621z"/><path class="cls-20" x="391.73" y="613.2" width="138.41" height="26.51" d="M197.156 308.621H266.818V321.964H197.156V308.621z"/></g><g><path class="cls-6" points="522.61 514.62 508.29 531.8 508.29 495.54" d="M263.028 259.006L255.821 267.653L255.821 249.404"/><path class="cls-6" x1="493.97" y1="514.62" x2="508.29" y2="531.8" d="M248.613 259.006L255.821 267.653"/></g><path class="cls-6" points="488 537.77 488 543.97 528.57 543.97 528.57 537.77" d="M245.609 270.658L245.609 273.778L266.027 273.778L266.027 270.658"/><path class="cls-6" cx="508.29" cy="523.21" r="39.94" d="M275.922 263.33A20.102 20.102 0 0 1 255.821 283.431A20.102 20.102 0 0 1 235.719 263.33A20.102 20.102 0 0 1 275.922 263.33z"/><path class="cls-24" d="M421.133 129.242a76.466 76.466 0 0 1 -25.93 -5.637c-3.09 1.117 -6.689 2.194 -10.745 3.025 -5.833 1.188 -11.073 1.545 -15.396 1.54 -0.564 3.478 -2.683 18.889 7.308 32.976 6.075 8.561 13.831 12.698 17.797 14.47 4.036 -1.606 11.958 -5.421 18.38 -13.725 10.559 -13.659 9.085 -29.146 8.662 -32.644"/><path class="cls-24" d="M416.503 128.914c-3.246 -0.327 -6.845 -0.896 -10.69 -1.847 -4.016 -0.991 -7.57 -2.22 -10.609 -3.463 -3.09 1.117 -6.689 2.194 -10.745 3.025 -5.833 1.188 -11.073 1.545 -15.396 1.54 -0.564 3.478 -2.683 18.889 7.308 32.976 4.097 5.778 8.959 9.537 12.905 11.918 4.047 -1.611 11.948 -5.426 18.355 -13.715 9.039 -11.692 9.261 -24.722 8.868 -30.429Z"/><path class="cls-7" points="765.21 286.15 784.3 306.04 804.46 286.7" d="M385.128 144.018L394.736 154.029L404.882 144.295"/></g></g></svg>