<svg xmlns="http://www.w3.org/2000/svg" id="Layer_1" data-name="Layer 1" viewBox="0 0 500 500" width="500" height="500"><defs><style>.cls-1{opacity:0.86;}.cls-11,.cls-2,.cls-7{fill:#4b82fd;}.cls-10,.cls-12,.cls-13,.cls-3{fill:#fff;}.cls-3{opacity:0.7;isolation:isolate;}.cls-14,.cls-4,.cls-5,.cls-6,.cls-8{fill:none;}.cls-10,.cls-11,.cls-12,.cls-13,.cls-4,.cls-5,.cls-6,.cls-7,.cls-8,.cls-9{stroke:#263238;}.cls-4,.cls-7{stroke-miterlimit:10;}.cls-5{stroke-miterlimit:10;}.cls-6{stroke-miterlimit:10;}.cls-10,.cls-11,.cls-12,.cls-13,.cls-14,.cls-8,.cls-9{stroke-linecap:round;stroke-linejoin:round;}.cls-9{fill:#263238;}.cls-14{stroke:#696969;}</style></defs><g id="freepik--background-simple--inject-15" class="cls-1"><path class="cls-2" d="M323.23 58.3S254.5 38.06 186.63 79 84.17 196.26 54.48 257.5 41.24 378.75 92.67 404s86.81 -17.42 159.23 -23 91.83 3.47 152.17 -38.93S475.9 206 429 139.34 323.23 58.3 323.23 58.3Z"/><path class="cls-3" d="M323.23 58.3S254.5 38.06 186.63 79 84.17 196.26 54.48 257.5 41.24 378.75 92.67 404s86.81 -17.42 159.23 -23 91.83 3.47 152.17 -38.93S475.9 206 429 139.34 323.23 58.3 323.23 58.3Z"/></g><g id="freepik--Graphics--inject-15"><path class="cls-4" x="89.13" y="66.82" width="232.08" height="139.39" rx="10.23" d="M99.36 66.82H310.98A10.23 10.23 0 0 1 321.21 77.05V195.98A10.23 10.23 0 0 1 310.98 206.21H99.36A10.23 10.23 0 0 1 89.13 195.98V77.05A10.23 10.23 0 0 1 99.36 66.82z"/><path class="cls-5" cx="122.27" cy="168.26" r="21.49" d="M143.76 168.26A21.49 21.49 0 0 1 122.27 189.75A21.49 21.49 0 0 1 100.78 168.26A21.49 21.49 0 0 1 143.76 168.26z"/><path class="cls-6" cx="122.26" cy="168.26" r="8.32" d="M130.58 168.26A8.32 8.32 0 0 1 122.26 176.58A8.32 8.32 0 0 1 113.94 168.26A8.32 8.32 0 0 1 130.58 168.26z"/><path class="cls-4" x1="127.54" y1="161.96" x2="137.37" y2="153.35" d="M127.54 161.96L137.37 153.35"/><path class="cls-4" x1="122.27" y1="176.57" x2="122.27" y2="189.75" d="M122.27 176.57L122.27 189.75"/><path class="cls-7" x="110.94" y="95.26" width="7.24" height="31.57" d="M110.94 95.26H118.18V126.83H110.94V95.26z"/><path class="cls-7" x="120.77" y="107.68" width="7.24" height="19.14" d="M120.77 107.68H128.01V126.82H120.77V107.68z"/><path class="cls-7" x="130.6" y="86.98" width="7.24" height="39.84" d="M130.6 86.98H137.84V126.82H130.6V86.98z"/><path class="cls-7" x="140.43" y="79.74" width="7.24" height="47.09" d="M140.43 79.74H147.67V126.83H140.43V79.74z"/><path class="cls-7" x="150.26" y="99.4" width="7.24" height="27.43" d="M150.26 99.4H157.5V126.83H150.26V99.4z"/><path class="cls-7" x="160.1" y="106.12" width="7.24" height="20.7" d="M160.1 106.12H167.34V126.82H160.1V106.12z"/><path class="cls-7" x="169.93" y="114.4" width="7.24" height="12.42" d="M169.93 114.4H177.17V126.82H169.93V114.4z"/><path class="cls-7" x="179.76" y="95.26" width="7.24" height="31.57" d="M179.76 95.26H187V126.83H179.76V95.26z"/><path class="cls-7" x="189.59" y="104.57" width="7.24" height="22.25" d="M189.59 104.57H196.83V126.82H189.59V104.57z"/><path class="cls-7" x="199.43" y="95.26" width="7.24" height="31.57" d="M199.43 95.26H206.67V126.83H199.43V95.26z"/><path class="cls-7" x="209.26" y="114.92" width="7.24" height="11.9" d="M209.26 114.92H216.5V126.82H209.26V114.92z"/><path class="cls-7" x="219.09" y="95.26" width="7.24" height="31.57" d="M219.09 95.26H226.33V126.83H219.09V95.26z"/><path class="cls-4" x1="98" y1="126.82" x2="252.62" y2="126.82" d="M98 126.82L252.62 126.82"/><path class="cls-4" x1="211.8" y1="134.62" x2="241.5" y2="134.62" d="M211.8 134.62L241.5 134.62"/><path class="cls-4" x1="211.8" y1="139.46" x2="241.5" y2="139.46" d="M211.8 139.46L241.5 139.46"/><path class="cls-4" x1="211.8" y1="144.3" x2="241.5" y2="144.3" d="M211.8 144.3L241.5 144.3"/><path class="cls-4" x1="211.8" y1="149.14" x2="241.5" y2="149.14" d="M211.8 149.14L241.5 149.14"/><path class="cls-4" x1="148.24" y1="174.69" x2="177.95" y2="174.69" d="M148.24 174.69L177.95 174.69"/><path class="cls-4" x1="148.24" y1="179.53" x2="177.95" y2="179.53" d="M148.24 179.53L177.95 179.53"/><path class="cls-4" x1="148.24" y1="184.37" x2="177.95" y2="184.37" d="M148.24 184.37L177.95 184.37"/><path class="cls-4" x1="148.24" y1="189.2" x2="177.95" y2="189.2" d="M148.24 189.2L177.95 189.2"/><path class="cls-4" x1="257.39" y1="77.98" x2="257.39" y2="190.58" d="M257.39 77.98L257.39 190.58"/><path class="cls-4" x="91.26" y="218.24" width="86.32" height="62.26" rx="9.58" d="M100.84 218.24H168A9.58 9.58 0 0 1 177.58 227.82V270.92A9.58 9.58 0 0 1 168 280.5H100.84A9.58 9.58 0 0 1 91.26 270.92V227.82A9.58 9.58 0 0 1 100.84 218.24z"/><path class="cls-4" x="91.26" y="290.41" width="86.32" height="62.26" rx="9.58" d="M100.84 290.41H168A9.58 9.58 0 0 1 177.58 299.99V343.09A9.58 9.58 0 0 1 168 352.67H100.84A9.58 9.58 0 0 1 91.26 343.09V299.99A9.58 9.58 0 0 1 100.84 290.41z"/><path class="cls-8" d="M123.15 246.54v-8.84a11.28 11.28 0 0 1 22.56 -0.65v9.49h4.49v-8.84a15.77 15.77 0 0 0 -31.54 -0.77v9.61Z"/><path class="cls-8" x="116.98" y="246.54" width="34.43" height="29.1" d="M116.98 246.54H151.41V275.64H116.98V246.54z"/><path class="cls-9" d="M137.78 258.64a3.74 3.74 0 1 0 -5.53 3.31l-0.63 6.6h4.82l-0.62 -6.6a3.77 3.77 0 0 0 1.96 -3.31Z"/><path class="cls-4" d="M133.59 296.28a25 25 0 1 0 25 25.05 25.07 25.07 0 0 0 -25 -25.05Zm0 3.1c2.1 0 4.33 2.73 5.92 7.3h-11.85c1.6 -4.57 3.82 -7.3 5.93 -7.3Zm6.83 10.41a48.5 48.5 0 0 1 1.25 10H125.5a49.21 49.21 0 0 1 1.26 -10Zm1.25 13.1a46 46 0 0 1 -1.67 11.54h-12.83a46.27 46.27 0 0 1 -1.67 -11.52Zm-19.29 -3.12h-10.65a21.69 21.69 0 0 1 3.24 -10h8.57a52.9 52.9 0 0 0 -1.16 10Zm0 3.12a51.6 51.6 0 0 0 1.53 11.54H116a21.82 21.82 0 0 1 -4.3 -11.52Zm2.52 14.63a21.73 21.73 0 0 0 2.41 4.82 21.77 21.77 0 0 1 -8.42 -4.82Zm3.36 0h10.66c-1.53 3.63 -3.48 5.74 -5.33 5.74s-3.81 -2.12 -5.33 -5.75Zm14 0h6.05a21.73 21.73 0 0 1 -8.43 4.82 21.87 21.87 0 0 0 2.37 -4.83Zm0.94 -3.1a50.38 50.38 0 0 0 1.53 -11.53h10.69a21.86 21.86 0 0 1 -4.3 11.54Zm1.53 -14.65a51.49 51.49 0 0 0 -1.16 -10h8.58a21.69 21.69 0 0 1 3.24 10Zm5.08 -13.1h-7.06a23.79 23.79 0 0 0 -2.94 -6.37 21.88 21.88 0 0 1 10 6.38Zm-22.56 -6.37a23.93 23.93 0 0 0 -2.94 6.37h-7.07a22 22 0 0 1 10 -6.36Z"/></g><g id="freepik--Character--inject-15"><path class="cls-10" points="191.5 180.2 196.43 167.04 200 175.26 191.5 180.2" d="M191.5 180.2L196.43 167.04L200 175.26L191.5 180.2Z"/><path class="cls-10" d="M206 166.85a82 82 0 0 1 -8.73 -11.6c-3.28 -5.49 -5.75 -8 -8.77 -8s-7.67 0.83 -11.23 0 -12.89 -8.77 -12.89 -4.11 4.38 6.3 6.85 6.55a42.86 42.86 0 0 1 7 1.92 20.63 20.63 0 0 1 -5.39 4.68c-3.29 1.92 -10.42 0.83 -7.68 3.3s7.95 6.3 11.23 6.3 14 -4.39 14 -4.39l7.4 14Z"/><path class="cls-11" d="M197.25 155.25a34.56 34.56 0 0 0 -3.52 -5.05c-0.94 10 -6.7 12.54 -6.7 12.54l0.08 0.1c1.87 -0.72 3.3 -1.29 3.3 -1.29l1.77 3.37a14.23 14.23 0 0 0 5.7 -8.64Z"/><path class="cls-10" d="M167.1 159.71s2.29 -6.92 1.61 -9.46 -2.81 -0.61 -3.5 1.63 -2 6.19 -1.74 7.77 1.41 3.82 3.63 0.06Z"/><path class="cls-10" d="M164.11 164.45a8 8 0 0 0 4 -0.28c2.35 -0.71 4.56 -0.21 5.13 -1.87s-0.19 -3.43 -2.29 -3.05 -6.47 1.23 -7.35 1.76 -0.93 1.99 0.51 3.44Z"/><path class="cls-10" d="M166 161.76s0.46 -7.28 -0.84 -9.56 -2.86 0.12 -3 2.46 -0.32 6.48 0.29 8 2.39 3.34 3.55 -0.9Z"/><path class="cls-10" d="M181.08 160.76s4.67 -8.93 7.36 -10.06a4.32 4.32 0 0 1 5.95 4.25 8.41 8.41 0 0 1 -4.53 7.48c-2.27 1 -7.22 2.7 -7.22 2.7Z"/><path class="cls-11" d="M169.85 166.45a8.51 8.51 0 0 0 4.07 -1.42c2.23 -1.4 4.68 -1.51 4.78 -3.35s-1.17 -3.49 -3.23 -2.5 -6.32 3.09 -7.09 3.9 -0.44 2.24 1.47 3.37Z"/><path class="cls-10" d="M171.07 163.13s-1.59 -7.65 -3.57 -9.63 -2.91 0.93 -2.37 3.38 1.51 6.78 2.55 8.14 3.32 2.78 3.39 -1.89Z"/><path class="cls-11" d="M176 168.4a8.41 8.41 0 0 0 4 -1.7c2.13 -1.55 4.53 -1.87 4.53 -3.68s-1.41 -3.39 -3.39 -2.26 -6.09 3.54 -6.8 4.39 -0.34 2.26 1.66 3.25Z"/><path class="cls-10" d="M177 165s-2.13 -7.49 -4.25 -9.36 -2.81 1.13 -2.12 3.54 2 6.66 3.11 7.93 3.51 2.57 3.26 -2.11Z"/><path class="cls-11" d="M173.91 145.75a4.55 4.55 0 0 1 0.08 2.4 2.18 2.18 0 0 1 -2.5 1.65 46.57 46.57 0 0 1 6.75 1.87c1.34 -0.67 1 -2.8 0.65 -4.14a14.91 14.91 0 0 1 -1.65 -0.25 14.56 14.56 0 0 1 -3.33 -1.53Z"/><path class="cls-10" d="M259 328.34s-1.2 10.89 0.31 20 3.62 35.37 5.14 46.25a171.72 171.72 0 0 1 1.21 29.64c-0.3 8.42 -3.32 17.83 -7.56 22.67s-10 10.29 -9.36 12.7 15.41 1.5 21.76 0.3 10.3 -3.63 11.23 -6.66 1.52 -11.48 1.52 -14.51 -1.82 -8.16 -3 -10.57 -1.82 -8.47 -1.21 -15.42 5.44 -24.79 6 -41.73 -4.83 -29.31 -5.14 -32 0 -10 0 -10Z"/><path class="cls-11" d="M278.92 412.69c0.6 -6.95 5.44 -24.79 6.05 -41.73s-4.84 -29.31 -5.15 -32 0 -10 0 -10l-3.39 -0.13c-0.78 4 -2.33 14.42 0.46 23.95 3.54 12.12 1.72 29.66 0.22 41.75S275 419 275.89 419.91c0.51 0.51 1.64 0.72 2.81 -0.53a59.74 59.74 0 0 1 0.22 -6.69Z"/><path class="cls-10" d="m280.16 340.4 -9.71 1.25 1.21 7.55 10.58 -1.58c-0.83 -3.18 -1.63 -5.62 -2.08 -7.22Z"/><path class="cls-12" cx="267.15" cy="349.79" rx="7.56" ry="13.9" transform="rotate(-1.38 267.344 349.934)" d="M274.71 349.79A7.56 13.9 0 0 1 267.15 363.69A7.56 13.9 0 0 1 259.59 349.79A7.56 13.9 0 0 1 274.71 349.79z"/><path class="cls-11" d="M282.28 454.93c0.81 -2.7 0.74 -11.5 0.85 -15.12a0.76 0.76 0 0 0 -0.28 0.09c-2.42 1.2 -7.86 2.41 -9.67 6.64s-2.73 10.89 -7.56 12.4c-3.75 1.18 -13.1 0.52 -17 0.17a1.62 1.62 0 0 0 0 0.44c0.6 2.41 15.54 2 21.77 0.3 8.7 -2.4 10.98 -1.85 11.89 -4.92Z"/><path class="cls-9" d="M279.09 424.21a45.66 45.66 0 0 1 -0.36 -8.43 20.88 20.88 0 0 1 -13 1.13c0 2.52 -0.07 4.95 -0.15 7.23a4.41 4.41 0 0 1 -0.05 0.81c4.09 1.18 9.71 0.3 13.56 -0.74Z"/><path class="cls-11" d="M280.13 428.11a13.56 13.56 0 0 1 -1 -3.9s-10.15 4.81 -7.73 8.42c1.69 2.53 6.61 -0.82 9.43 -3.08 -0.27 -0.55 -0.49 -1.03 -0.7 -1.44Z"/><path class="cls-11" d="m262.89 441.71 -1.45 -0.18a23.5 23.5 0 0 1 -3.38 5.32l-0.79 0.89a0.9 0.9 0 0 1 -0.12 0.32c-1.81 5.13 -1.81 5.44 1.22 5.13s8.15 -3.62 8.15 -7.55a3.66 3.66 0 0 0 -3.37 -3.92Z"/><path class="cls-10" d="M272.87 331.37s-1.21 6.65 5.44 26.91 21.17 62 23 69.52 3.63 29.63 10.29 36.88 10.88 7.26 11.79 -0.93 -0.61 -15.72 -6.95 -30.88c-2.94 -7 -7 -17.84 -7.86 -23.89s-0.31 -37.18 -3.33 -47.72 -7.86 -15.42 -10.58 -21.46a59.82 59.82 0 0 1 -3.63 -10Z"/><path class="cls-11" d="M294.64 339.83a60 60 0 0 1 -3.63 -10l-3.27 0.27c1.3 5.61 4.48 18 9 26.63 6 11.49 7.55 30.53 9.67 41.41a49.82 49.82 0 0 0 1.8 6.81c-0.5 -10.58 -0.42 -34.62 -3 -43.68 -3.02 -10.55 -7.85 -15.39 -10.57 -21.44Z"/><path class="cls-9" d="m294.64 339.83 -0.06 -0.14 -7.8 3.47 5.74 9.67 7.44 -3.74a104.53 104.53 0 0 1 -5.32 -9.26Z"/><path class="cls-13" cx="284.96" cy="350.27" rx="8.47" ry="14.96" transform="rotate(-17.46 284.966 350.285)" d="M293.43 350.27A8.47 14.96 0 0 1 284.96 365.23A8.47 14.96 0 0 1 276.49 350.27A8.47 14.96 0 0 1 293.43 350.27z"/><path class="cls-9" d="M298.67 419.07c0.76 2.39 1.41 4.45 1.87 6.06 3 0.87 7.73 1.36 11.72 -1.87 -0.72 -2.09 -1.38 -4.22 -1.94 -6.25 -2.7 1.07 -7.49 2.63 -11.65 2.06Z"/><path class="cls-11" d="M318.61 448.87a4.51 4.51 0 0 0 -4.68 -3c-1.87 0.17 -4.17 0.76 -5.39 2.46 -2.43 3.33 0.93 10.29 6.34 11.49 4.68 1.07 5.78 -5.01 3.73 -10.95Z"/><path class="cls-11" d="M316.41 433c-1.2 -2.81 -2.57 -6.32 -3.83 -9.85l-0.31 0.12s0.21 8.21 2.62 11.23c1 1.27 1.81 1.26 2.4 0.63 -0.29 -0.75 -0.57 -1.45 -0.88 -2.13Z"/><path class="cls-11" d="M303.71 439.29c2.41 0 1.51 -4.84 -0.61 -9.36a16.72 16.72 0 0 0 -2.23 -3.69c0.17 0.61 0.32 1.16 0.42 1.57 0.6 2.53 1.22 6.71 2 11.4a1.15 1.15 0 0 0 0.42 0.08Z"/><path class="cls-9" d="M246.9 239.63s-5.12 8.42 -5.12 30.34 9.14 59.24 9.14 59.24a87.69 87.69 0 0 0 23.39 7 76.7 76.7 0 0 0 27.06 -1.1s14.26 -38.36 17.18 -59.24 -1.09 -31.87 -1.09 -31.87l-65.82 -10.3Z"/><path class="cls-9" d="M275.69 139.88s-24.68 8 -25.5 9.6 -21.12 37.11 -21.12 37.11L205.39 166l-13.89 14.25s32.36 32.08 35.11 33.19 2.74 2.46 4.11 1.37 23.86 -20.59 23.86 -20.59 4.67 12.07 4.38 16.18 -15.9 31.27 -15.9 31.27 5.76 11 12.07 15.35 11.52 8 11.52 8l5.75 -14 3.85 14.81s7.4 -0.55 20.83 -4.11 24.17 -12 24.17 -12l-12.62 -39.62 13.45 -26.1 28.52 30.18s12.77 -1.68 20.38 -3.85c4.11 -1.18 -10.24 -18.38 -15.44 -25.51S339.87 157.17 336 152s-36.2 -14.53 -36.2 -14.53 -18.89 -1.4 -24.11 2.41Z"/><path class="cls-2" cx="295.2" cy="178.87" rx="5.92" ry="5.74" d="M301.12 178.87A5.92 5.74 0 0 1 295.2 184.61A5.92 5.74 0 0 1 289.28 178.87A5.92 5.74 0 0 1 301.12 178.87z"/><path class="cls-14" d="M254.58 194.19a41.36 41.36 0 0 1 -2.19 -12.61c0 -6.55 4.1 -19.2 4.1 -19.2"/><path class="cls-14" points="313.32 176.37 322.05 184.04 312.6 180.67" d="M313.32 176.37L322.05 184.04L312.6 180.67"/><path class="cls-14" d="M332.32 152s-8.24 -1.43 -13.62 10.76"/><path class="cls-14" x1="229.07" y1="186.55" x2="231.53" y2="190" d="M229.07 186.55L231.53 190"/><path class="cls-14" d="M252 252.41 266.68 265l5.76 -14 3.84 14.82s19.14 -0.81 40.31 -13.37"/><path class="cls-10" d="M279.58 133.11s-3.07 0.17 -5.62 5.29 -5.45 17.06 -9.21 21.16 -2.56 4.27 -0.51 3.74 8 -4.43 8 -4.43 0.34 9 1.54 13.3 0.16 15.71 1.18 20.14a32.57 32.57 0 0 1 1 5.61s5.8 -17.57 8.87 -22.86 8.86 -14.67 8.86 -14.67l11.94 6.55s-0.16 -11.08 -0.51 -16.84 3.74 -12.63 -0.85 -16.55 -24.69 -0.44 -24.69 -0.44Z"/><path class="cls-10" d="M278.21 123s-0.33 8.2 0 17.4 -0.21 36.4 -0.21 36.4 21.16 -36.18 23 -38.91l1 -16.72s-14.43 7.5 -23.79 1.83Z"/><path class="cls-11" d="M278.21 123s-0.26 6.33 -0.09 14.1a15.6 15.6 0 0 0 8.19 5c5 1.25 9.67 -0.27 13.58 -2.39 0.57 -0.93 1 -1.6 1.19 -1.87l1 -16.72s-14.51 7.55 -23.87 1.88Z"/><path class="cls-9" d="M302.1 121.17s-14.5 7.48 -23.89 1.87c0 0 -0.12 3 -0.15 7.38 2.52 2.45 7.81 7.33 10.14 7.33s9.35 -5 13.37 -7.88Z"/><path class="cls-10" d="M272 96.37a10.15 10.15 0 0 0 -1.72 1c-1.24 0.07 -2.1 3.2 -1.91 7s1.35 6.85 2.6 6.79h0a9.17 9.17 0 0 0 1.8 0.83c1.42 -0.07 2.39 -3.62 2.17 -7.94s-1.49 -7.75 -2.94 -7.68Z"/><path class="cls-10" d="M285.7 71.75A19.13 19.13 0 0 0 271.27 82c-3.67 7.18 -1 11.42 -1 17s2.8 20.44 3.81 22 9.21 12 13.42 12.62 15.23 -9.22 17 -12.22 3.62 -15 4.4 -22.24 0.2 -19.44 -4.41 -23.24S291.9 71 285.7 71.75Z"/><path class="cls-8" d="M305.85 102h-3.68s0.41 -2.6 -3.57 -4.79c-2.05 -1.13 -4.24 0.17 -5.88 1.71a8.62 8.62 0 0 0 -2.73 6l-0.72 8.29a1.57 1.57 0 0 1 -1.62 1.52h-0.08a1.57 1.57 0 0 1 -1.43 -1.46c-0.23 -3.5 -0.61 -14.14 -3.58 -15.83 -5.07 -2.88 -7.68 3.57 -7.68 3.57h-2.28"/><path class="cls-9" d="M298.53 106a2.52 2.52 0 0 0 0.27 -1.11 2.64 2.64 0 0 0 -5.28 0 2.52 2.52 0 0 0 0.27 1.11Z"/><path class="cls-9" d="M283 106a2.39 2.39 0 0 0 0.27 -1.11 2.64 2.64 0 0 0 -5.28 0 2.53 2.53 0 0 0 0.28 1.11Z"/><path class="cls-11" d="M292.84 120.28c-1.78 1.37 -3.57 1.24 -6.45 1.09s-3.57 -1.5 -3.57 -1.5l3.3 -0.94 1.37 1.51 1.37 -1.24Z"/><path class="cls-11" d="M283.83 121a6.14 6.14 0 0 0 3.15 3c2.19 0.82 4.25 -2.61 4.25 -2.61s-4.97 0.26 -7.4 -0.39Z"/><path class="cls-11" d="M285.7 71.75a19.32 19.32 0 0 0 -8.36 3.25 26.45 26.45 0 0 0 0 5.9c0.55 3.84 4 9.18 4 9.18h13.85a27.16 27.16 0 0 0 5.76 -10c0.81 -2.48 1.38 -4.21 1.78 -5.41 -4.73 -2.78 -11.58 -3.67 -17.03 -2.92Z"/><path class="cls-11" d="M304.22 90c0 1.37 2.61 8.91 2.61 11.66s-1.79 8.77 -4 10.42 -2.83 3.12 -3.13 5.92a75.78 75.78 0 0 0 0 8.66 29.82 29.82 0 0 0 4.87 -5.17c1.81 -3 3.6 -15 4.41 -22.24 0.53 -4.8 0.44 -11.83 -1.05 -17.11 -1.29 2.24 -3.71 6.86 -3.71 7.86Z"/><path class="cls-10" d="M309.78 110a20.54 20.54 0 0 0 0.67 -11.31l0.07 -1.23 -0.93 -0.54a1.2 1.2 0 0 0 -0.82 -0.49c-1.41 -0.07 -2.76 3.35 -3 7.67s0.69 7.88 2.1 8a1.18 1.18 0 0 0 0.87 -0.39l0.93 -0.43Z"/><path class="cls-10" d="M312.37 104.41c-0.22 3.81 -1.41 6.84 -2.66 6.77s-2.07 -3.22 -1.87 -7 1.41 -6.83 2.66 -6.76 2.09 3.19 1.87 6.99Z"/><path class="cls-11" d="M276.34 113.61c-2.19 -2.75 -3.28 -6.45 -3.74 -10.43s0.68 -13.16 0.68 -13.57 -1.73 -4.76 -2.51 -6.73c-3 6.66 -0.6 10.79 -0.6 16.17 0 5.61 2.81 20.43 3.81 22a53.86 53.86 0 0 0 3.75 4.77c-0.15 -5.11 0.48 -10.02 -1.39 -12.21Z"/><path class="cls-11" d="M293.8 131.14c-1.74 -1.87 -4.79 -5 -6.2 -5.37s-4.09 2.92 -5.3 4.68c1.87 1.72 3.74 3.05 5.19 3.25s3.82 -0.93 6.31 -2.56Z"/><path class="cls-10" d="M322.92 225.72s-11.44 -10.52 -13.28 -11 -12.16 4.73 -12.16 6.1 2.28 1.23 4.57 0.62 6.71 -2.29 6.71 -2.29 4.89 11.29 6.41 13.1 2.59 4.42 5.62 3.5a12.84 12.84 0 0 0 4.73 -2.43Z"/><path class="cls-11" d="M310.87 222.67a32 32 0 0 0 3.81 3.05c0.76 0.31 2.29 0 1.22 -3.2s-3.51 -5 -4.58 -5.19 -1.83 4.28 -0.45 5.34Z"/><path class="cls-10" d="M310 216.54s-9.77 5.8 -10.08 7.77 2.26 1.22 4.43 0.62c2.75 -0.77 7.33 -1.87 7.93 -4.43s0.41 -4.39 -2.28 -3.96Z"/><path class="cls-11" d="M312.23 226.18a31 31 0 0 0 3.82 3c0.76 0.31 2.29 0 1.22 -3.2s-3.51 -5 -4.58 -5.19 -1.82 4.33 -0.46 5.39Z"/><path class="cls-10" d="M311.32 220.08s-9.72 5.81 -10.07 7.79 2.25 1.2 4.42 0.61c2.76 -0.77 7.33 -1.88 7.94 -4.43s0.46 -4.43 -2.29 -3.97Z"/><path class="cls-11" d="M313.18 229.32a28.63 28.63 0 0 0 3.35 2.67c0.67 0.28 2 0 1.07 -2.8s-3.08 -4.42 -4 -4.55 -1.6 3.74 -0.42 4.68Z"/><path class="cls-10" d="M312.37 224s-8.57 5.09 -8.84 6.83 2 1.06 3.89 0.53c2.41 -0.66 6.43 -1.6 7 -3.88s0.37 -3.93 -2.05 -3.48Z"/><path class="cls-9" d="M347.72 201.26s-15.8 17.89 -18 19.53a75.4 75.4 0 0 1 -7.4 4.39l3.61 12.62s22.46 -11 31.55 -16.74 15.62 -9 15.35 -11.79S363 197.2 363 197.2"/><path class="cls-14" x1="343.09" y1="206.14" x2="350.26" y2="197.53" d="M343.09 206.14L350.26 197.53"/><path class="cls-11" d="M292.9 151.5c-6.16 1.6 -10.34 7.87 -10.34 7.87a69.86 69.86 0 0 0 -4.24 -10.2c0 11.61 -0.28 27.65 -0.28 27.65s8.22 -14.07 14.86 -25.32Z"/></g></svg>