<svg version="1.1" id="Layer_1" xmlns="http://www.w3.org/2000/svg" xmlns:xlink="http://www.w3.org/1999/xlink" x="0px" y="0px" width="450px" height="450px" viewBox="0 0 450 450" enable-background="new 0 0 1400 1400" xml:space="preserve"><g id="XMLID_1_"><path id="XMLID_125_" fill-rule="evenodd" clip-rule="evenodd" fill="#C2DBF4" width="1400" height="1400" d="M0 0h450v450H0V0z"/><path id="XMLID_124_" fill-rule="evenodd" clip-rule="evenodd" fill="#A1BDEF" d="M58.308 411.397h334.961V224.775c0 -90.708 -74.217 -164.925 -164.925 -164.925h-5.111c-90.708 0 -164.925 74.217 -164.925 164.925v186.622z"/><path id="XMLID_123_" fill-rule="evenodd" clip-rule="evenodd" fill="#8CAEEB" d="m63.45 411.397 39.536 -42.653h54.225c7.297 0 12.375 -15.717 20.539 -15.717h90.128c9.708 0 14.208 15.717 22.983 15.717h57.761l39.536 43.2h-15.139l-294.398 -0.514H63.45z"/><path id="XMLID_122_" x="592.9" y="219.9" fill-rule="evenodd" clip-rule="evenodd" fill="#4A4587" width="227.3" height="28.1" d="M190.575 70.683h73.061v9.032H190.575v-9.033z"/><path id="XMLID_121_" x="592.9" y="261.5" fill-rule="evenodd" clip-rule="evenodd" fill="#FFF3F1" width="227.3" height="132.6" d="M190.575 84.053h73.061V126.675H190.575V84.053z"/><path id="XMLID_120_" x="607.8" y="306.5" fill-rule="evenodd" clip-rule="evenodd" fill="#DBDCDC" width="47.3" height="72.6" d="M195.364 98.517h15.203v23.336h-15.203V98.517z"/><path id="XMLID_119_" x="607.8" y="287.4" fill-rule="evenodd" clip-rule="evenodd" fill="#DBDCDC" width="74.4" height="9.7" d="M195.364 92.378h23.914v3.117h-23.914v-3.117z"/><path id="XMLID_118_" x="607.8" y="270.3" fill-rule="evenodd" clip-rule="evenodd" fill="#FF6239" width="74.4" height="9.7" d="M195.364 86.883h23.914V90h-23.914v-3.117z"/><path id="XMLID_117_" x="666.9" y="306.5" fill-rule="evenodd" clip-rule="evenodd" fill="#DBDCDC" width="54.2" height="9.7" d="M214.361 98.517h17.422v3.117h-17.422v-3.117z"/><path id="XMLID_116_" x="666.9" y="322.2" fill-rule="evenodd" clip-rule="evenodd" fill="#DBDCDC" width="54.2" height="9.7" d="M214.361 103.564h17.422v3.117h-17.422v-3.117z"/><path id="XMLID_115_" x="666.9" y="337.9" fill-rule="evenodd" clip-rule="evenodd" fill="#DBDCDC" width="54.2" height="9.7" d="M214.361 108.611h17.422v3.117h-17.422v-3.117z"/><path id="XMLID_114_" x="666.9" y="353.6" fill-rule="evenodd" clip-rule="evenodd" fill="#DBDCDC" width="54.2" height="9.7" d="M214.361 113.658h17.422v3.117h-17.422v-3.117z"/><path id="XMLID_113_" x="666.9" y="369.4" fill-rule="evenodd" clip-rule="evenodd" fill="#DBDCDC" width="54.2" height="9.7" d="M214.361 118.736h17.422v3.117h-17.422v-3.117z"/><path id="XMLID_112_" x="761.1" y="271.4" fill-rule="evenodd" clip-rule="evenodd" fill="#B7DCEC" width="47.3" height="72.6" d="M244.639 87.236h15.203v23.335h-15.203V87.235z"/><path id="XMLID_111_" x="742.3" y="271.4" fill-rule="evenodd" clip-rule="evenodd" fill="#DBDCDC" width="4.5" height="107.7" d="M238.597 87.236h1.447v34.617h-1.447V87.236z"/><path id="XMLID_110_" fill-rule="evenodd" clip-rule="evenodd" fill="#FFF3F1" d="M244.414 72.997c1.222 0 2.25 0.997 2.25 2.25s-0.997 2.25 -2.25 2.25c-1.222 0 -2.25 -0.997 -2.25 -2.25s0.997 -2.25 2.25 -2.25"/><path id="XMLID_109_" fill-rule="evenodd" clip-rule="evenodd" fill="#FFF3F1" d="M251.1 72.997c1.222 0 2.25 0.997 2.25 2.25s-0.997 2.25 -2.25 2.25c-1.222 0 -2.25 -0.997 -2.25 -2.25s1.028 -2.25 2.25 -2.25"/><path id="XMLID_108_" fill-rule="evenodd" clip-rule="evenodd" fill="#FF6239" d="M257.817 72.997c1.222 0 2.217 0.997 2.217 2.25s-0.997 2.25 -2.217 2.25 -2.25 -0.997 -2.25 -2.25 0.997 -2.25 2.25 -2.25"/><path id="XMLID_107_" x="911.1" y="372.9" fill-rule="evenodd" clip-rule="evenodd" fill="#4A4587" width="227.3" height="28.1" d="M292.853 119.861h73.06v9.033h-73.06v-9.033z"/><path id="XMLID_106_" x="911.1" y="414.5" fill-rule="evenodd" clip-rule="evenodd" fill="#FFF3F1" width="227.3" height="132.6" d="M292.853 133.233h73.06v42.622h-73.06v-42.622z"/><path id="XMLID_105_" x="926.1" y="459.5" fill-rule="evenodd" clip-rule="evenodd" fill="#FF6239" width="47.3" height="72.6" d="M297.675 147.697h15.203v23.336H297.675v-23.336z"/><path id="XMLID_104_" x="926.1" y="440.4" fill-rule="evenodd" clip-rule="evenodd" fill="#DBDCDC" width="74.4" height="9.7" d="M297.675 141.558h23.914v3.117H297.675v-3.117z"/><path id="XMLID_103_" x="926.1" y="423.3" fill-rule="evenodd" clip-rule="evenodd" fill="#DBDCDC" width="74.4" height="9.7" d="M297.675 136.061h23.914v3.117H297.675v-3.117z"/><path id="XMLID_102_" x="985.1" y="459.5" fill-rule="evenodd" clip-rule="evenodd" fill="#DBDCDC" width="54.2" height="9.7" d="M316.639 147.697h17.422v3.117h-17.422v-3.117z"/><path id="XMLID_101_" x="985.1" y="475.2" fill-rule="evenodd" clip-rule="evenodd" fill="#DBDCDC" width="54.2" height="9.7" d="M316.639 152.742h17.422v3.117h-17.422v-3.117z"/><path id="XMLID_100_" x="985.1" y="490.9" fill-rule="evenodd" clip-rule="evenodd" fill="#DBDCDC" width="54.2" height="9.7" d="M316.639 157.789h17.422v3.117h-17.422v-3.117z"/><path id="XMLID_99_" x="985.1" y="506.6" fill-rule="evenodd" clip-rule="evenodd" fill="#DBDCDC" width="54.2" height="9.7" d="M316.639 162.836h17.422v3.117h-17.422v-3.117z"/><path id="XMLID_98_" x="985.1" y="522.4" fill-rule="evenodd" clip-rule="evenodd" fill="#DBDCDC" width="54.2" height="9.7" d="M316.639 167.914h17.422v3.117h-17.422v-3.117z"/><path id="XMLID_97_" x="1079.3" y="424.4" fill-rule="evenodd" clip-rule="evenodd" fill="#B7DCEC" width="47.3" height="72.6" d="M346.917 136.414h15.203V159.75h-15.203v-23.336z"/><path id="XMLID_96_" x="1060.5" y="424.4" fill-rule="evenodd" clip-rule="evenodd" fill="#DBDCDC" width="4.5" height="107.7" d="M340.875 136.414h1.447v34.617H340.875v-34.617z"/><path id="XMLID_95_" fill-rule="evenodd" clip-rule="evenodd" fill="#FFF3F1" d="M346.692 122.175c1.222 0 2.25 0.997 2.25 2.25s-0.997 2.25 -2.25 2.25 -2.25 -0.997 -2.25 -2.25 1.028 -2.25 2.25 -2.25"/><path id="XMLID_94_" fill-rule="evenodd" clip-rule="evenodd" fill="#FFF3F1" d="M353.411 122.175c1.222 0 2.25 0.997 2.25 2.25s-0.997 2.25 -2.25 2.25 -2.25 -0.997 -2.25 -2.25 0.997 -2.25 2.25 -2.25"/><path id="XMLID_93_" fill-rule="evenodd" clip-rule="evenodd" fill="#FF6239" d="M360.097 122.175c1.222 0 2.217 0.997 2.217 2.25s-0.997 2.25 -2.217 2.25 -2.25 -0.997 -2.25 -2.25 1.028 -2.25 2.25 -2.25"/><path id="XMLID_92_" x="289.2" y="378.9" fill-rule="evenodd" clip-rule="evenodd" fill="#4A4587" width="227.3" height="28.1" d="M92.958 121.789h73.061v9.033H92.958v-9.033z"/><path id="XMLID_91_" x="289.2" y="420.5" fill-rule="evenodd" clip-rule="evenodd" fill="#FFF3F1" width="227.3" height="132.6" d="M92.958 135.161h73.061v42.622H92.958v-42.622z"/><path id="XMLID_90_" x="304.1" y="465.5" fill-rule="evenodd" clip-rule="evenodd" fill="#FF6239" width="47.3" height="72.6" d="M97.747 149.625H112.95v23.336H97.747V149.625z"/><path id="XMLID_89_" x="304.1" y="446.4" fill-rule="evenodd" clip-rule="evenodd" fill="#DBDCDC" width="74.4" height="9.7" d="M97.747 143.486h23.914v3.117H97.747v-3.117z"/><path id="XMLID_88_" x="304.1" y="429.3" fill-rule="evenodd" clip-rule="evenodd" fill="#DBDCDC" width="74.4" height="9.7" d="M97.747 137.989h23.914v3.117H97.747v-3.117z"/><path id="XMLID_87_" x="363.2" y="465.5" fill-rule="evenodd" clip-rule="evenodd" fill="#DBDCDC" width="54.2" height="9.7" d="M116.742 149.625h17.422v3.117h-17.422V149.625z"/><path id="XMLID_86_" x="363.2" y="481.2" fill-rule="evenodd" clip-rule="evenodd" fill="#DBDCDC" width="54.2" height="9.7" d="M116.742 154.672h17.422v3.117h-17.422v-3.117z"/><path id="XMLID_85_" x="363.2" y="496.9" fill-rule="evenodd" clip-rule="evenodd" fill="#DBDCDC" width="54.2" height="9.7" d="M116.742 159.717h17.422v3.117h-17.422v-3.117z"/><path id="XMLID_84_" x="363.2" y="512.6" fill-rule="evenodd" clip-rule="evenodd" fill="#DBDCDC" width="54.2" height="9.7" d="M116.742 164.764h17.422v3.117h-17.422v-3.117z"/><path id="XMLID_83_" x="363.2" y="528.4" fill-rule="evenodd" clip-rule="evenodd" fill="#DBDCDC" width="54.2" height="9.7" d="M116.742 169.842h17.422v3.117h-17.422v-3.117z"/><path id="XMLID_82_" x="457.4" y="430.4" fill-rule="evenodd" clip-rule="evenodd" fill="#B7DCEC" width="47.3" height="72.6" d="M147.022 138.342H162.225v23.336h-15.203v-23.336z"/><path id="XMLID_81_" x="438.6" y="430.4" fill-rule="evenodd" clip-rule="evenodd" fill="#DBDCDC" width="4.5" height="107.7" d="M140.978 138.342h1.447v34.617h-1.447v-34.617z"/><path id="XMLID_80_" fill-rule="evenodd" clip-rule="evenodd" fill="#FFF3F1" d="M146.797 124.103c1.222 0 2.25 0.997 2.25 2.25a2.229 2.229 0 0 1 -2.25 2.217 2.222 2.222 0 0 1 -2.217 -2.217c-0.033 -1.253 0.997 -2.25 2.217 -2.25"/><path id="XMLID_79_" fill-rule="evenodd" clip-rule="evenodd" fill="#FFF3F1" d="M153.483 124.103c1.222 0 2.25 0.997 2.25 2.25a2.229 2.229 0 0 1 -2.25 2.217c-1.222 0 -2.25 -0.997 -2.25 -2.217 0.033 -1.253 1.028 -2.25 2.25 -2.25"/><path id="XMLID_78_" fill-rule="evenodd" clip-rule="evenodd" fill="#FF6239" d="M160.2 124.103c1.222 0 2.25 0.997 2.25 2.25a2.229 2.229 0 0 1 -2.25 2.217c-1.222 0 -2.25 -0.997 -2.25 -2.217 0 -1.253 1.028 -2.25 2.25 -2.25"/><path id="XMLID_77_" x="213" y="189" fill-rule="evenodd" clip-rule="evenodd" fill="#4A4587" width="111" height="23.4" d="M68.464 60.75h35.678v7.522H68.464V60.75z"/><path id="XMLID_76_" x="213" y="223.6" fill-rule="evenodd" clip-rule="evenodd" fill="#FFF3F1" width="111" height="110.4" d="M68.464 71.872h35.678v35.486H68.464V71.872z"/><path id="XMLID_75_" x="221.5" y="261.1" fill-rule="evenodd" clip-rule="evenodd" fill="#B7DCEC" width="39.4" height="60.5" d="M71.197 83.925h12.664v19.447H71.197V83.925z"/><path id="XMLID_74_" x="221.5" y="245.2" fill-rule="evenodd" clip-rule="evenodd" fill="#DBDCDC" width="61.9" height="8.1" d="M71.197 78.814h19.897v2.603H71.197v-2.603z"/><path id="XMLID_73_" x="221.5" y="231" fill-rule="evenodd" clip-rule="evenodd" fill="#DBDCDC" width="61.9" height="8.1" d="M71.197 74.25h19.897v2.603H71.197V74.25z"/><path id="XMLID_72_" x="270.7" y="261.1" fill-rule="evenodd" clip-rule="evenodd" fill="#FF6239" width="45.2" height="8.1" d="M87.011 83.925h14.528v2.603H87.011V83.925z"/><path id="XMLID_71_" x="270.7" y="274.2" fill-rule="evenodd" clip-rule="evenodd" fill="#DBDCDC" width="45.2" height="8.1" d="M87.011 88.136h14.528v2.603H87.011v-2.603z"/><path id="XMLID_70_" x="270.7" y="287.3" fill-rule="evenodd" clip-rule="evenodd" fill="#DBDCDC" width="45.2" height="8.1" d="M87.011 92.347h14.528V94.95H87.011v-2.603z"/><path id="XMLID_69_" x="270.7" y="300.4" fill-rule="evenodd" clip-rule="evenodd" fill="#DBDCDC" width="45.2" height="8.1" d="M87.011 96.558h14.528v2.603H87.011v-2.603z"/><path id="XMLID_68_" x="270.7" y="313.5" fill-rule="evenodd" clip-rule="evenodd" fill="#DBDCDC" width="45.2" height="8.1" d="M87.011 100.767h14.528v2.603H87.011v-2.603z"/><path id="XMLID_67_" fill-rule="evenodd" clip-rule="evenodd" fill="#FFF3F1" d="M90.867 63.064a1.474 1.474 0 0 1 1.478 1.478c0 0.803 -0.642 1.478 -1.478 1.478s-1.478 -0.642 -1.478 -1.478 0.642 -1.478 1.478 -1.478"/><path id="XMLID_66_" fill-rule="evenodd" clip-rule="evenodd" fill="#FFF3F1" d="M95.272 63.064A1.474 1.474 0 0 1 96.75 64.542a1.474 1.474 0 0 1 -1.478 1.478 1.474 1.474 0 0 1 -1.478 -1.478c0 -0.836 0.642 -1.478 1.478 -1.478"/><path id="XMLID_65_" fill-rule="evenodd" clip-rule="evenodd" fill="#FF6239" d="M99.675 63.064a1.474 1.474 0 0 1 1.478 1.478 1.474 1.474 0 0 1 -1.478 1.478 1.474 1.474 0 0 1 -1.478 -1.478c0 -0.836 0.675 -1.478 1.478 -1.478"/><path id="XMLID_64_" x="1135.2" y="177.9" fill-rule="evenodd" clip-rule="evenodd" fill="#4A4587" width="111" height="23.4" d="M364.886 57.183h35.678v7.522h-35.678v-7.522z"/><path id="XMLID_63_" x="1135.2" y="212.5" fill-rule="evenodd" clip-rule="evenodd" fill="#FFF3F1" width="111" height="110.4" d="M364.886 68.303h35.678v35.486h-35.678V68.303z"/><path id="XMLID_62_" x="1143.7" y="250" fill-rule="evenodd" clip-rule="evenodd" fill="#B7DCEC" width="39.4" height="60.5" d="M367.617 80.358h12.664v19.447h-12.664V80.358z"/><path id="XMLID_61_" x="1143.7" y="234.1" fill-rule="evenodd" clip-rule="evenodd" fill="#DBDCDC" width="61.9" height="8.1" d="M367.617 75.247h19.897V77.85h-19.897v-2.603z"/><path id="XMLID_60_" x="1143.7" y="219.9" fill-rule="evenodd" clip-rule="evenodd" fill="#DBDCDC" width="61.9" height="8.1" d="M367.617 70.683h19.897v2.603h-19.897v-2.603z"/><path id="XMLID_59_" x="1192.9" y="250" fill-rule="evenodd" clip-rule="evenodd" fill="#FF6239" width="45.2" height="8.1" d="M383.433 80.358h14.528v2.603h-14.528v-2.603z"/><path id="XMLID_58_" x="1192.9" y="263.1" fill-rule="evenodd" clip-rule="evenodd" fill="#DBDCDC" width="45.2" height="8.1" d="M383.433 84.567h14.528v2.603h-14.528v-2.603z"/><path id="XMLID_57_" x="1192.9" y="276.2" fill-rule="evenodd" clip-rule="evenodd" fill="#DBDCDC" width="45.2" height="8.1" d="M383.433 88.778h14.528v2.603h-14.528v-2.603z"/><path id="XMLID_56_" x="1192.9" y="289.3" fill-rule="evenodd" clip-rule="evenodd" fill="#DBDCDC" width="45.2" height="8.1" d="M383.433 92.989h14.528v2.603h-14.528v-2.603z"/><path id="XMLID_55_" x="1192.9" y="302.4" fill-rule="evenodd" clip-rule="evenodd" fill="#DBDCDC" width="45.2" height="8.1" d="M383.433 97.2h14.528v2.603h-14.528V97.2z"/><path id="XMLID_54_" fill-rule="evenodd" clip-rule="evenodd" fill="#DBDCDC" d="M387.289 59.497a1.474 1.474 0 0 1 1.478 1.478 1.474 1.474 0 0 1 -1.478 1.478 1.474 1.474 0 0 1 -1.478 -1.478c0 -0.836 0.675 -1.478 1.478 -1.478"/><path id="XMLID_53_" fill-rule="evenodd" clip-rule="evenodd" fill="#DBDCDC" d="M391.692 59.497a1.474 1.474 0 0 1 1.478 1.478c0 0.803 -0.642 1.478 -1.478 1.478s-1.478 -0.642 -1.478 -1.478 0.675 -1.478 1.478 -1.478"/><path id="XMLID_52_" fill-rule="evenodd" clip-rule="evenodd" fill="#FF6239" d="M396.097 59.497A1.474 1.474 0 0 1 397.575 60.975a1.474 1.474 0 0 1 -1.478 1.478 1.474 1.474 0 0 1 -1.478 -1.478c0.033 -0.836 0.675 -1.478 1.478 -1.478"/><path id="XMLID_51_" fill="none" stroke="#FFFFFF" stroke-width="0.9111214285714287" stroke-miterlimit="22.9256" stroke-dasharray="5.67,2.83" points="
		333.9,278.8 399.6,278.8 399.6,370.3 	" d="M107.325 89.614h21.117V119.025"/><path id="XMLID_50_" fill="none" stroke="#FFFFFF" stroke-width="0.9111214285714287" stroke-miterlimit="22.9256" stroke-dasharray="5.67,2.83" points="
		543.5,497.5 609.1,497.5 609.1,406.1 	" d="M174.697 159.911h21.086v-29.378"/><path id="XMLID_49_" fill="none" stroke="#FFFFFF" stroke-width="0.9111214285714287" stroke-miterlimit="22.9256" stroke-dasharray="5.67,2.83" points="
		836.3,269.6 927.9,269.6 927.9,361 	" d="M268.811 86.658h29.442v29.378"/><path id="XMLID_48_" fill="none" stroke="#FFFFFF" stroke-width="0.9111214285714287" stroke-miterlimit="22.9256" stroke-dasharray="5.67,2.83" points="
		1149.7,455.5 1195.5,455.5 1195.5,337.4 	" d="M369.547 146.411h14.722V108.45"/><path id="XMLID_47_" fill-rule="evenodd" clip-rule="evenodd" fill="#FF6239" d="M213.589 186.589h23.528c14.433 0 26.228 11.797 26.228 26.228v61.2h-75.086v-62.1c0 -13.917 11.411 -25.328 25.328 -25.328"/><path id="XMLID_46_" fill-rule="evenodd" clip-rule="evenodd" fill="#EC5B37" d="M183.6 274.017h84.375c5.625 0 10.253 4.597 10.253 10.253 0 5.625 -4.597 10.253 -10.253 10.253h-84.375c-5.625 0 -10.253 -4.597 -10.253 -10.253 0.033 -5.658 4.628 -10.253 10.253 -10.253"/><path id="XMLID_45_" fill-rule="evenodd" clip-rule="evenodd" fill="#B2C9E8" points="597.1,916.2 619,916.2 555,1145.5 
		546.8,1145.5 	" d="M191.925 294.492h7.039l-20.572 73.703h-2.636Z"/><path id="XMLID_44_" fill-rule="evenodd" clip-rule="evenodd" fill="#B2C9E8" points="807.8,916.2 785.9,916.2 850,1145.5 
		858.2,1145.5 	" d="M259.65 294.492h-7.039l20.603 73.703h2.636Z"/><path id="XMLID_43_" fill-rule="evenodd" clip-rule="evenodd" fill="#4A4587" d="M224.55 176.4a9.112 9.112 0 0 0 -1.608 0.128l-17.486 2.636a14.726 14.726 0 0 0 -1.158 0.258c-5.561 0.933 -15.558 6.172 -17.036 12.858l-8.036 35.967h14.367l5.497 -21.792v45.867h50.981v-45.867l5.497 21.792 10.317 5.497 4.017 -5.497 -8.036 -35.967c-1.478 -6.686 -11.475 -11.925 -17.036 -12.858a15.253 15.253 0 0 0 -1.158 -0.258l-17.486 -2.636c-0.578 -0.064 -1.092 -0.128 -1.639 -0.128"/><path id="XMLID_42_" fill-rule="evenodd" clip-rule="evenodd" fill="#E8E5EC" d="M224.55 176.4a9.112 9.112 0 0 0 -1.608 0.128l-7.811 1.189v70.972h18.836v-70.972l-7.811 -1.189c-0.547 -0.064 -1.061 -0.128 -1.608 -0.128"/><path id="XMLID_41_" fill-rule="evenodd" clip-rule="evenodd" fill="#832C44" d="M235.447 121.628c0 6.011 -4.886 10.897 -10.897 10.897s-10.897 -4.886 -10.897 -10.897 4.886 -10.897 10.897 -10.897c6.011 -0.033 10.897 4.853 10.897 10.897"/><path id="XMLID_40_" fill-rule="evenodd" clip-rule="evenodd" fill="#FFA982" d="M218.347 154.928v24.108c0 9.225 12.375 9.225 12.375 0v-24.108c0.033 -9.225 -12.375 -9.225 -12.375 0"/><path id="XMLID_39_" fill-rule="evenodd" clip-rule="evenodd" fill="#EA876B" d="M218.347 147.439v24.108c0 9.225 12.375 9.225 12.375 0v-24.108c0.033 -9.258 -12.375 -9.258 -12.375 0"/><path id="XMLID_38_" fill-rule="evenodd" clip-rule="evenodd" fill="#FFA982" d="M243.642 148.661c0 13.822 -8.55 25.972 -19.092 25.972s-19.092 -12.15 -19.092 -25.972 8.55 -25.008 19.092 -25.008 19.092 11.186 19.092 25.008"/><path id="XMLID_37_" fill-rule="evenodd" clip-rule="evenodd" fill="#FFA982" d="M238.917 149.464c-0.547 2.539 1.125 5.047 3.697 5.592 2.572 0.547 5.111 -1.061 5.658 -3.6 0.547 -2.539 -1.125 -5.047 -3.697 -5.592 -2.603 -0.547 -5.111 1.061 -5.658 3.6"/><path id="XMLID_36_" fill-rule="evenodd" clip-rule="evenodd" fill="#A3434C" d="M224.55 120.375c-17.422 0 -22.083 12.086 -22.083 27 12.311 0 16.489 -16.939 16.489 -16.939s0.997 6.878 6.364 11.989c4.564 4.339 12.761 7.297 21.311 4.95 0 -14.914 -4.661 -27 -22.083 -27"/><path id="XMLID_35_" fill-rule="evenodd" clip-rule="evenodd" fill="#FFA982" d="M210.15 150.042c0.225 2.603 -1.736 4.886 -4.372 5.111 -2.636 0.225 -4.95 -1.703 -5.175 -4.275 -0.225 -2.603 1.736 -4.886 4.372 -5.111 2.636 -0.225 4.95 1.703 5.175 4.275"/><path id="XMLID_34_" fill-rule="evenodd" clip-rule="evenodd" fill="#EA876B" d="M218.603 164.508c3.439 2.572 8.358 2.572 11.797 0 0.964 -0.708 0.033 -2.347 -0.933 -1.608 -2.958 2.217 -6.911 2.217 -9.9 0 -0.997 -0.739 -1.928 0.9 -0.964 1.608"/><path id="XMLID_33_" fill-rule="evenodd" clip-rule="evenodd" fill="#832C44" d="M231.783 151.297a2.072 2.072 0 0 0 2.058 2.058 2.072 2.072 0 0 0 2.058 -2.058 2.072 2.072 0 0 0 -2.058 -2.058 2.072 2.072 0 0 0 -2.058 2.058"/><path id="XMLID_32_" fill-rule="evenodd" clip-rule="evenodd" fill="#832C44" d="M238.275 143.678c-2.603 -1.383 -5.528 -1.575 -8.292 -0.514 -0.708 0.289 -0.386 1.447 0.322 1.158 2.475 -0.964 5.014 -0.867 7.361 0.386 0.708 0.353 1.317 -0.675 0.611 -1.028"/><path id="XMLID_31_" fill-rule="evenodd" clip-rule="evenodd" fill="#832C44" d="M217.317 151.297a2.072 2.072 0 0 1 -2.058 2.058 2.072 2.072 0 0 1 -2.058 -2.058 2.072 2.072 0 0 1 2.058 -2.058 2.072 2.072 0 0 1 2.058 2.058"/><path id="XMLID_30_" fill-rule="evenodd" clip-rule="evenodd" fill="#832C44" d="M211.403 144.708c2.347 -1.253 4.886 -1.35 7.361 -0.386 0.708 0.289 1.028 -0.867 0.322 -1.158 -2.764 -1.092 -5.658 -0.867 -8.292 0.514 -0.675 0.353 -0.064 1.383 0.611 1.028"/><path id="XMLID_29_" fill-rule="evenodd" clip-rule="evenodd" fill="#EA876B" d="M226.928 156.825c-0.192 1.767 -4.725 1.736 -4.917 0 -0.064 -0.675 -1.125 -0.675 -1.061 0 0.353 3.15 6.653 3.15 7.008 0 0.097 -0.642 -0.964 -0.642 -1.028 0"/><path id="XMLID_28_" fill-rule="evenodd" clip-rule="evenodd" fill="#BC6E5D" points="668.5,727.2 319,727.2 166.7,807.2 
		668.5,807.2 1238.2,807.2 1085.9,727.2 	" d="M214.875 233.742H102.536l-48.953 25.714h344.41l-48.953 -25.714Z"/><path id="XMLID_27_" x="166.7" y="807.2" fill-rule="evenodd" clip-rule="evenodd" fill="#A46051" width="1071.5" height="35.1" d="M53.583 259.458h344.41v11.283H53.583v-11.283z"/><path id="XMLID_26_" x="265.9" y="842.2" fill-rule="evenodd" clip-rule="evenodd" fill="#78463C" width="47.1" height="364.8" d="M85.467 270.708h15.139v117.258H85.467V270.708z"/><path id="XMLID_25_" x="1092" y="842.2" fill-rule="evenodd" clip-rule="evenodd" fill="#78463C" width="47.1" height="364.8" d="M351 270.708h15.139v117.258H351V270.708z"/><path id="XMLID_24_" x="197.4" y="842.2" fill-rule="evenodd" clip-rule="evenodd" fill="#A46051" width="47.1" height="439.3" d="M63.45 270.708h15.139v141.203H63.45V270.708z"/><path id="XMLID_23_" x="197.4" y="842.2" fill-rule="evenodd" clip-rule="evenodd" fill="#8E5347" width="47.1" height="26.3" d="M63.45 270.708h15.139v8.453H63.45v-8.453z"/><path id="XMLID_22_" x="1160.4" y="842.2" fill-rule="evenodd" clip-rule="evenodd" fill="#A46051" width="47.1" height="439.3" d="M372.986 270.708H388.125v141.203h-15.139V270.708z"/><path id="XMLID_21_" x="1160.4" y="842.2" fill-rule="evenodd" clip-rule="evenodd" fill="#8E5347" width="47.1" height="26.3" d="M372.986 270.708H388.125v8.453h-15.139v-8.453z"/><path id="XMLID_20_" fill-rule="evenodd" clip-rule="evenodd" fill="#27275B" d="M196.425 265.983h52.908c0 5.142 -3.728 13.339 -9.964 13.339h-32.561c-6.267 0 -10.383 -8.164 -10.383 -13.339"/><path id="XMLID_19_" fill-rule="evenodd" clip-rule="evenodd" fill="#4A4587" d="M201.053 265.983H245.25c-0.611 4.05 -3.6 9.192 -8.261 9.192h-27.322c-4.692 0 -7.939 -5.142 -8.614 -9.192"/><path id="XMLID_18_" fill-rule="evenodd" clip-rule="evenodd" fill="#4A4587" d="m226.833 359.614 -2.089 -21.825c-0.064 -0.642 -0.547 -1.608 -1.028 -1.833 -4.083 -1.767 -8.325 -1.833 -12.664 0 -0.578 0.225 -0.964 1.222 -1.028 1.961l-2.058 21.697c-0.997 9.933 19.8 9.933 18.867 0"/><path id="XMLID_17_" fill-rule="evenodd" clip-rule="evenodd" fill="#FFA982" d="M213.717 265.983h25.489l17.486 47.122c2.7 7.264 24.558 16.683 20.861 22.372 -5.464 8.358 -18.9 3.022 -29.153 -3.278 -4.147 -2.539 -4.661 -7.65 -1.928 -13.308 -5.047 -12.15 -13.628 -17.389 -19.383 -28.317 0.353 19.125 -3.247 31.372 -3.536 49.403 1.253 4.628 1.639 8.903 0.997 12.15 -4.147 -3.986 -8.903 -3.858 -13.372 0 -0.739 -3.117 -0.514 -7.264 0.803 -12.15 -2.186 -13.95 -9.483 -59.014 1.736 -73.992"/><path id="XMLID_16_" fill-rule="evenodd" clip-rule="evenodd" fill="#EA876B" d="M213.717 265.983h25.489l9.9 26.711c-5.239 1.511 -9.997 4.436 -14.272 8.903 -2.764 -3.311 -5.497 -6.75 -7.778 -11.089 0.064 4.308 -0.033 8.292 -0.289 12.053 -6.267 -2.153 -12.6 -2.186 -18.997 0.161 -0.611 -14.658 0.417 -29.347 5.947 -36.739"/><path id="XMLID_15_" fill-rule="evenodd" clip-rule="evenodd" fill="#EA876B" d="M244.833 326.411c-0.225 -2.25 0.322 -4.822 1.639 -7.553 -5.047 -12.15 -13.628 -17.389 -19.383 -28.317 8.325 7.425 17.067 14.4 22.372 24.525 1.897 3.633 1.542 7.811 3.117 10.897l-7.747 0.45z"/><path id="XMLID_14_" fill-rule="evenodd" clip-rule="evenodd" fill="#4A4587" d="M269.55 324.933c5.303 3.953 9.836 7.714 7.972 10.542 -5.464 8.358 -18.9 3.022 -29.153 -3.278 -4.147 -2.539 -4.661 -7.65 -1.928 -13.308 2.828 8.325 26.872 20.442 25.297 9.322 -0.097 -0.9 -1.222 -2.572 -2.186 -3.278"/><path id="XMLID_13_" fill-rule="evenodd" clip-rule="evenodd" fill="#4A4587" points="561.2,693.7 585.7,693.9 602.2,710.1 
		591.6,727.2 539.2,727.2 	" d="m180.386 222.975 7.875 0.064 5.303 5.208 -3.408 5.497h-16.842Z"/><path id="XMLID_12_" fill-rule="evenodd" clip-rule="evenodd" fill="#27275B" points="669.3,552.9 649.9,573.9 663.8,584.4 
		645.5,602.2 669.3,686.9 	" d="m215.133 177.717 -6.236 6.75 4.467 3.375 -5.883 5.722 7.65 27.225Z"/><path id="XMLID_11_" fill-rule="evenodd" clip-rule="evenodd" fill="#27275B" points="727.9,552.9 747.3,573.9 733.4,584.4 
		751.7,602.2 727.9,686.9 	" d="m233.967 177.717 6.236 6.75 -4.467 3.375 5.883 5.722 -7.65 27.225Z"/><path id="XMLID_10_" fill-rule="evenodd" clip-rule="evenodd" fill="#DBDCDC" d="m190.736 239.336 -23.336 9.258c-0.772 0.289 -1.478 0.675 -1.478 1.478s0.739 1.767 1.478 1.478l23.336 -9.258c0.772 -0.289 1.478 -0.675 1.478 -1.478s-0.708 -1.767 -1.478 -1.478"/><path id="XMLID_135_" fill-rule="evenodd" clip-rule="evenodd" fill="#FFF3F1" points="594.4,744.5 517.5,775.3 515.8,770.8 
		507.8,750.4 504.8,742.6 526,735.7 	" d="m191.058 239.303 -24.717 9.9 -0.547 -1.447 -2.572 -6.558 -0.964 -2.508 6.814 -2.217Z"/><path id="XMLID_133_" fill-rule="evenodd" clip-rule="evenodd" fill="#4A4587" points="552.4,756.1 515.8,770.8 507.8,750.4 	
		" d="m177.558 243.033 -11.764 4.725 -2.572 -6.558Z"/><path id="XMLID_8_" fill-rule="evenodd" clip-rule="evenodd" fill="#DBDCDC" d="m160.714 204.364 -47.442 -4.758c-2.508 -0.258 -7.683 2.797 -7.167 6.558l4.725 34.875c0.483 3.664 3.889 6.397 7.039 6.653l48.053 3.986c2.508 0.192 4.95 -2.089 4.597 -4.597l-5.208 -38.122c-0.322 -2.508 -2.058 -4.339 -4.597 -4.597"/><path id="XMLID_7_" fill-rule="evenodd" clip-rule="evenodd" fill="#FFF3F1" d="m159.075 204.203 -45.803 -4.597c-2.508 -0.258 -7.683 2.797 -7.167 6.558l4.725 34.875c0.483 3.664 3.889 6.397 7.039 6.653l47.797 3.986c1.608 -0.772 2.733 -2.442 2.508 -4.242l-5.303 -38.7c-0.289 -2.283 -1.703 -3.986 -3.792 -4.533"/><path id="XMLID_6_" fill-rule="evenodd" clip-rule="evenodd" fill="#DBDCDC" d="m260.839 239.336 23.336 9.258c0.772 0.289 1.478 0.675 1.478 1.478s-0.739 1.767 -1.478 1.478l-23.336 -9.258c-0.772 -0.289 -1.478 -0.675 -1.478 -1.478s0.739 -1.767 1.478 -1.478"/><path id="XMLID_136_" fill-rule="evenodd" clip-rule="evenodd" fill="#FFF3F1" points="900.2,742.6 895.8,753.7 888.5,772.5 
		887.4,775.3 810.5,744.5 878.9,735.7 	" d="m289.35 238.692 -1.414 3.567 -2.347 6.042 -0.353 0.9 -24.717 -9.9 21.986 -2.828Z"/><path id="XMLID_132_" fill-rule="evenodd" clip-rule="evenodd" fill="#27275B" points="895.8,753.7 888.5,772.5 854.7,759 	" d="m287.936 242.261 -2.347 6.042 -10.864 -4.339Z"/><path id="XMLID_4_" fill-rule="evenodd" clip-rule="evenodd" fill="#DBDCDC" d="m290.861 204.364 47.442 -4.758c2.508 -0.258 7.683 2.797 7.167 6.558l-4.725 34.875c-0.483 3.664 -3.889 6.397 -7.039 6.653l-48.053 3.986c-2.508 0.192 -4.95 -2.089 -4.597 -4.597l5.208 -38.122c0.353 -2.508 2.089 -4.339 4.597 -4.597"/><path id="XMLID_3_" fill-rule="evenodd" clip-rule="evenodd" fill="#FFF3F1" d="m292.5 204.203 45.803 -4.597c2.508 -0.258 7.683 2.797 7.167 6.558l-4.725 34.875c-0.483 3.664 -3.889 6.397 -7.039 6.653l-47.797 3.986c-1.608 -0.772 -2.733 -2.442 -2.508 -4.242l5.303 -38.7c0.322 -2.283 1.703 -3.986 3.792 -4.533"/><path id="XMLID_2_" fill-rule="evenodd" clip-rule="evenodd" fill="#FFF3F1" d="M184.564 202.339h79.939c2.572 0 5.014 2.122 4.661 4.661l-5.367 39.697c-0.353 2.539 -2.089 4.661 -4.661 4.661h-69.749c-2.572 0 -4.372 -2.122 -4.661 -4.661L179.903 207c-0.322 -2.539 2.089 -4.661 4.661 -4.661"/></g></svg>