<?xml version="1.0" standalone="no"?>
<!DOCTYPE svg PUBLIC "-//W3C//DTD SVG 20010904//EN"
 "http://www.w3.org/TR/2001/REC-SVG-20010904/DTD/svg10.dtd">
<svg version="1.0" xmlns="http://www.w3.org/2000/svg"
 width="800.000000pt" height="800.000000pt" viewBox="0 0 800.000000 800.000000"
 preserveAspectRatio="xMidYMid meet">

<g transform="translate(0.000000,800.000000) scale(0.100000,-0.100000)"
fill="#000000" stroke="none">
<path d="M3735 7055 c-27 -7 -66 -14 -86 -14 -20 -1 -38 -4 -42 -7 -3 -4 -23
-8 -44 -9 -45 -3 -223 -76 -268 -108 -16 -12 -43 -29 -59 -37 -15 -8 -38 -25
-50 -37 -11 -13 -26 -23 -31 -23 -6 0 -25 -16 -44 -35 -18 -19 -38 -35 -46
-35 -19 0 -176 -160 -207 -210 -14 -25 -42 -94 -62 -155 -20 -60 -48 -146 -63
-190 -33 -102 -41 -132 -57 -230 -8 -44 -23 -129 -34 -190 -12 -60 -26 -159
-32 -220 -6 -60 -16 -128 -22 -150 -13 -50 -16 -67 -23 -130 -22 -203 -29
-255 -35 -255 -5 0 -10 -7 -13 -14 -4 -10 -1 -13 8 -9 12 4 13 0 4 -26 -6 -17
-15 -28 -20 -25 -5 3 -9 1 -9 -5 0 -5 5 -11 12 -13 7 -3 9 -12 5 -22 -4 -9
-11 -15 -16 -11 -6 3 -9 -3 -9 -12 1 -10 -6 -44 -16 -76 -9 -32 -14 -62 -11
-67 3 -6 1 -10 -5 -10 -7 0 -9 -8 -5 -20 4 -12 2 -27 -4 -34 -6 -7 -12 -21
-14 -32 -6 -34 -28 -69 -94 -142 -23 -25 -32 -69 -13 -57 6 3 10 13 10 22 0
10 6 13 16 9 8 -3 13 -2 11 2 -3 4 2 13 10 21 13 12 14 11 8 -10 -14 -44 -63
-128 -71 -121 -4 4 -4 2 -1 -4 8 -14 -15 -80 -37 -105 -9 -11 -28 -46 -42 -77
-73 -163 -88 -192 -95 -192 -5 0 -9 -6 -9 -13 0 -16 -41 -57 -57 -57 -6 0 -24
-7 -39 -15 -16 -8 -38 -15 -49 -15 -11 0 -52 -15 -90 -33 -39 -19 -84 -36
-101 -40 -17 -3 -50 -18 -74 -34 -55 -36 -99 -127 -107 -223 -3 -44 -16 -88
-38 -135 -18 -38 -41 -90 -51 -114 -10 -24 -23 -49 -29 -55 -23 -25 -221 -441
-248 -521 -8 -22 -25 -69 -40 -105 -34 -88 -97 -318 -97 -355 0 -17 -14 -96
-31 -175 -16 -80 -34 -170 -39 -200 -12 -79 -26 -141 -55 -255 -13 -55 -25
-110 -25 -122 0 -12 -16 -90 -35 -173 -19 -83 -35 -161 -35 -173 0 -12 -14
-76 -31 -142 -17 -66 -34 -154 -39 -195 -15 -130 -58 -372 -91 -515 -10 -44
-23 -123 -29 -175 -6 -52 -12 -107 -15 -122 l-5 -28 883 1 c485 1 872 4 859 6
-28 6 -28 11 4 44 l26 27 -21 14 c-27 16 -27 28 -1 23 11 -2 20 0 20 5 0 4 3
17 6 27 5 16 4 16 -5 1 -10 -15 -49 -19 -43 -5 1 4 2 12 2 19 0 6 3 9 6 5 6
-6 34 16 34 26 0 3 -9 7 -20 10 -11 3 -20 10 -20 15 0 6 9 8 20 5 11 -3 20 0
20 6 0 6 -7 11 -15 11 -9 0 -20 12 -25 26 -13 34 -13 34 13 35 21 0 21 1 -3
11 l-25 10 30 14 c28 12 29 15 6 18 -6 0 -15 6 -21 12 -9 9 -4 14 19 22 17 6
31 17 31 24 1 9 5 7 14 -4 7 -10 18 -18 24 -18 20 0 43 -32 37 -51 -5 -15 -1
-19 20 -19 19 0 31 -9 46 -35 12 -19 25 -35 31 -35 5 0 28 -15 51 -34 36 -29
80 -51 97 -48 3 0 20 -8 38 -20 23 -14 32 -16 32 -6 0 22 -14 36 -39 39 -14 2
-26 10 -29 18 -3 9 0 11 8 6 7 -4 33 -9 57 -10 25 -1 48 -7 53 -14 5 -9 10
-10 14 -2 10 15 -2 31 -21 31 -12 0 -13 3 -4 13 6 8 7 17 3 22 -4 4 3 2 16 -4
12 -6 22 -16 22 -21 0 -6 0 -13 1 -17 1 -13 41 -24 63 -18 15 5 17 4 8 -3 -11
-7 -8 -11 12 -16 14 -3 25 -10 24 -14 0 -4 2 -15 7 -25 7 -17 8 -17 22 2 15
22 48 17 39 -6 -3 -8 -2 -12 2 -9 11 6 52 -22 52 -35 0 -6 15 -26 34 -44 l33
-35 169 0 c156 1 167 2 142 16 -16 8 -28 17 -28 19 0 6 63 -16 75 -26 5 -5 25
-9 45 -9 l35 0 -42 26 c-44 26 -52 39 -30 48 9 3 8 8 -5 18 -11 9 -14 23 -11
41 7 33 19 43 38 27 11 -9 14 -6 18 12 4 21 4 22 6 2 0 -12 8 -27 16 -34 12
-10 15 -9 15 6 0 34 -12 64 -25 64 -11 0 -35 40 -35 60 0 5 7 7 15 4 9 -4 15
-11 14 -18 -3 -21 1 -36 9 -36 4 0 8 56 9 124 2 68 7 136 13 151 5 14 10 38
10 53 -1 44 -16 7 -34 -83 -9 -44 -21 -81 -26 -83 -6 -2 -10 -13 -10 -25 0
-18 2 -19 10 -7 9 13 10 13 10 0 0 -8 -3 -25 -6 -38 -6 -21 -8 -22 -24 -7 -17
15 -19 15 -29 -2 -8 -14 -11 -15 -12 -3 -1 8 -1 20 0 26 1 7 -12 17 -29 22
-16 6 -30 18 -30 26 0 10 -6 13 -17 9 -10 -4 -14 -2 -10 4 4 6 1 14 -5 16 -7
3 -3 6 10 6 12 1 22 7 22 15 0 17 -18 31 -28 21 -3 -3 0 -10 8 -15 13 -8 12
-10 -2 -10 -13 0 -17 9 -16 40 0 22 4 40 9 40 11 0 7 23 -6 32 -6 4 -1 8 9 8
18 0 18 1 3 18 -10 10 -17 23 -17 29 0 6 -6 14 -12 16 -10 4 -10 6 -1 6 13 1
-26 70 -40 71 -5 0 -5 -4 -2 -10 3 -5 2 -10 -3 -10 -5 0 -9 14 -10 30 0 17 4
28 9 25 5 -4 9 1 9 9 0 9 -3 16 -7 16 -8 0 -33 47 -33 62 0 4 7 8 15 8 8 0 15
5 15 11 0 5 -6 7 -12 3 -8 -5 -7 0 2 11 14 18 15 18 18 -3 2 -11 -1 -29 -7
-40 -12 -23 -2 -38 27 -38 22 0 30 20 12 31 -16 10 -11 35 7 35 15 0 14 2 -3
16 -10 8 -13 13 -6 9 7 -3 12 0 12 8 0 10 -8 13 -25 9 -36 -6 -57 15 -50 50 7
32 -12 91 -26 82 -5 -3 -9 -1 -9 5 0 5 -9 12 -20 16 -16 5 -18 9 -7 25 9 16 8
22 -4 32 -19 15 -39 70 -39 104 0 12 7 29 15 38 8 8 15 21 15 28 0 10 3 9 10
-2 7 -11 10 -11 10 -2 0 7 5 10 10 7 6 -3 10 -2 10 4 0 5 -4 13 -10 16 -16 10
-12 25 5 19 8 -4 15 -16 15 -28 0 -27 8 -36 25 -30 14 6 8 44 -6 44 -5 0 -9 5
-9 11 0 8 4 9 13 0 8 -6 17 -8 21 -4 4 4 11 1 16 -7 9 -13 10 -13 10 0 0 13 1
13 10 0 6 -9 10 -10 10 -3 0 7 -10 18 -22 24 -13 7 -31 22 -42 33 -10 12 -21
20 -25 19 -4 -1 -8 8 -8 20 l-2 22 19 -23 c21 -26 30 -28 30 -7 0 8 -6 15 -13
15 -23 0 -41 44 -28 69 16 29 30 26 42 -9 6 -16 15 -30 21 -30 5 0 8 3 6 8
-36 69 -38 78 -21 135 15 54 45 90 37 44 -4 -20 -4 -20 6 2 7 15 16 21 26 17
13 -5 13 -3 -1 16 -20 29 -19 58 1 58 12 0 14 7 9 29 -3 16 -2 32 3 35 5 3 8
26 7 51 -1 25 2 45 6 45 16 0 4 64 -14 83 -12 12 -17 27 -13 40 3 11 -2 36 -9
56 -12 28 -12 32 -1 19 14 -19 32 -25 21 -8 -3 6 -2 10 3 10 11 0 10 -63 -2
-71 -4 -4 -5 -17 -1 -30 7 -22 10 -19 25 26 9 28 23 50 31 50 8 0 13 -6 11
-13 -1 -8 2 -11 8 -7 13 8 67 -49 62 -65 -3 -7 0 -10 6 -6 14 8 26 -35 18 -63
-3 -12 -9 -31 -12 -43 -6 -20 -5 -21 10 -9 9 7 16 20 16 27 0 8 4 14 10 14 5
0 9 -3 8 -7 -1 -5 3 -18 10 -29 6 -12 9 -24 5 -27 -3 -4 2 -18 11 -31 9 -14
16 -42 16 -63 1 -32 2 -35 11 -20 18 31 -6 191 -33 224 -5 7 -7 17 -3 23 4 6
2 17 -5 25 -6 7 -10 19 -9 27 3 26 -1 39 -11 33 -6 -4 -7 -12 -4 -18 4 -7 -4
-1 -18 13 -13 14 -23 28 -21 33 2 4 -3 7 -11 7 -9 0 -16 5 -16 11 0 6 -7 17
-15 25 -8 9 -15 12 -15 8 0 -4 -9 1 -20 11 -11 10 -20 24 -20 30 0 7 -9 15
-20 18 -11 3 -27 21 -35 40 -8 20 -19 38 -25 42 -6 4 -7 29 -3 63 3 31 5 91 4
134 -2 53 2 85 13 106 8 16 13 32 9 35 -3 3 -2 22 1 42 7 37 7 37 25 16 12
-13 25 -19 35 -15 9 3 16 1 16 -6 0 -16 25 -40 42 -40 8 0 9 3 2 8 -25 17 -58
82 -34 67 6 -3 10 -1 10 4 0 36 72 -24 83 -69 4 -14 4 -19 1 -12 -8 17 -24 15
-24 -3 0 -8 5 -15 10 -15 6 0 10 -5 10 -12 0 -6 -9 -3 -20 7 -17 16 -20 16
-20 2 0 -9 9 -18 19 -22 21 -6 41 -79 46 -161 1 -22 5 -45 8 -51 4 -6 1 -14
-5 -17 -10 -5 -10 -7 -1 -12 7 -3 10 -16 7 -32 -3 -15 0 -38 6 -52 9 -22 10
-20 6 18 -2 23 0 42 5 42 5 0 9 -19 10 -42 0 -33 2 -38 9 -23 8 18 9 17 9 -7
1 -23 -2 -26 -24 -22 -23 4 -25 2 -25 -36 0 -22 4 -40 9 -40 4 0 7 12 4 28 -3
23 -2 24 6 7 9 -18 10 -18 10 -2 1 10 5 16 10 12 14 -8 22 27 20 79 -3 53 7
70 20 35 5 -16 5 -26 -3 -31 -8 -6 -7 -8 1 -8 7 0 15 -11 19 -25 5 -19 11 -24
25 -20 13 5 19 1 19 -10 0 -15 1 -15 17 0 15 16 15 21 -2 73 -10 32 -18 63
-16 71 1 7 -2 10 -8 6 -6 -3 -11 -3 -12 2 -2 29 -11 63 -23 93 -14 36 -56 179
-56 193 0 4 7 7 15 7 22 0 18 18 -5 25 -18 6 -20 15 -20 98 0 56 4 87 9 78 6
-9 9 -1 10 25 1 64 15 99 37 96 15 -3 17 -1 7 9 -19 19 -16 29 22 93 19 32 35
64 35 70 0 13 33 80 49 99 5 7 12 40 14 74 2 33 7 65 10 70 3 5 7 50 9 100 1
50 6 89 10 87 10 -7 48 28 48 44 0 9 6 12 15 8 20 -8 42 -14 33 -9 -5 3 -6 17
-3 31 5 23 4 24 -4 7 -8 -17 -10 -18 -10 -2 -1 9 -5 17 -11 17 -5 0 -10 5 -10
10 0 6 11 10 25 10 28 0 28 0 16 34 -6 13 -18 26 -28 29 -10 2 -3 2 15 0 31
-4 32 -3 26 24 -4 15 -12 31 -17 34 -5 4 -2 9 8 10 16 4 15 6 -4 23 -21 19
-21 19 -21 -2 0 -41 -17 -22 -23 26 -3 26 -9 55 -12 65 -5 13 -2 17 13 17 11
0 22 -5 24 -10 3 -11 81 26 86 41 2 5 13 9 25 9 16 0 18 -3 9 -12 -19 -19 -14
-30 7 -19 13 8 19 22 19 47 0 35 17 58 34 48 4 -3 16 0 25 6 15 9 14 10 -6 4
-16 -4 -22 -2 -19 7 4 13 30 19 86 19 26 0 33 4 28 15 -4 10 1 15 14 15 18 0
19 3 8 20 -14 23 -34 26 -41 8 -2 -7 -7 1 -11 18 -5 23 -12 31 -24 27 -10 -2
-22 5 -30 17 -12 20 -11 21 7 15 12 -3 21 -4 21 -1 0 11 -38 44 -44 39 -3 -4
-6 1 -6 10 0 12 -9 17 -30 17 -16 0 -30 5 -30 10 0 6 -12 10 -26 10 -14 0 -23
4 -19 10 3 6 -3 10 -14 10 -12 0 -21 5 -21 10 0 6 9 10 21 10 11 0 18 3 16 8
-3 4 25 5 61 2 61 -5 246 20 260 35 13 13 -12 18 -38 8 -50 -19 -151 -11 -182
13 -15 12 -24 24 -21 28 3 3 0 6 -8 6 -14 0 -59 61 -59 79 0 6 -10 19 -22 31
-26 24 -20 34 13 21 17 -6 30 -5 42 4 24 17 21 35 -5 36 -15 0 -18 3 -8 6 8 4
21 13 29 20 11 11 16 12 22 2 5 -9 11 -8 24 4 9 10 23 17 31 17 17 0 74 40 74
52 0 8 -60 5 -133 -8 -29 -5 -43 -2 -57 11 -11 10 -20 14 -20 10 0 -5 -5 -4
-12 3 -8 8 -8 15 1 26 6 7 10 20 9 27 -2 7 4 14 12 15 8 2 32 5 53 9 41 7 47
23 17 50 -11 10 -20 22 -20 26 0 19 56 58 92 64 41 7 50 20 18 28 -11 3 -20 2
-20 -2 0 -15 -76 -29 -161 -29 -80 -1 -87 1 -98 21 -20 38 -3 74 29 57 8 -4
36 -6 63 -3 41 5 47 9 47 29 0 27 26 44 68 44 16 0 35 7 42 15 11 13 7 15 -24
15 -24 0 -36 5 -36 14 0 8 6 16 12 18 8 3 12 18 10 39 -3 31 1 37 32 54 20 11
38 25 40 31 7 18 -67 28 -94 14 -24 -13 -94 -5 -85 10 3 5 12 7 20 3 21 -8 18
14 -5 37 -11 11 -20 25 -20 30 0 6 -10 9 -22 7 -13 -2 -17 -2 -10 0 6 3 12 8
12 13 0 5 -7 6 -17 3 -11 -4 -14 -3 -9 5 5 8 1 10 -10 5 -11 -4 -15 -3 -10 5
3 6 2 13 -4 17 -14 8 -13 42 2 47 21 7 37 140 19 162 -6 7 -7 16 -2 22 5 5 11
23 13 39 3 26 8 30 35 33 25 2 34 -2 44 -20 6 -13 22 -34 35 -48 13 -14 42
-47 64 -75 53 -66 103 -83 215 -73 80 8 157 30 185 53 8 7 25 16 37 19 34 11
102 76 124 118 24 46 24 102 2 195 -16 68 -16 74 1 91 14 16 15 24 5 46 -8 16
-18 25 -26 22 -8 -3 -43 18 -79 46 -36 29 -73 52 -82 52 -39 -1 -307 -59 -347
-75 -103 -42 -105 -43 -105 -29 0 6 5 10 11 10 6 0 17 7 25 15 9 8 29 15 45
15 16 0 29 4 29 8 0 4 26 21 58 37 50 26 68 29 149 30 50 0 89 3 86 8 -2 4 2
7 9 7 8 0 6 5 -5 11 -9 6 -15 14 -12 19 14 22 -147 30 -200 10 -14 -5 -36 -10
-48 -10 -12 0 -44 -12 -72 -25 -27 -14 -57 -25 -66 -25 -8 0 -26 -12 -38 -26
-18 -21 -21 -33 -16 -60 3 -19 11 -34 17 -34 35 0 -20 -23 -111 -46 -78 -20
-108 -24 -124 -16 -70 33 -100 42 -175 52 -93 12 -112 18 -112 32 0 5 -4 6
-10 3 -5 -3 -10 1 -10 9 0 9 5 16 10 16 6 0 10 12 10 26 0 15 4 23 10 19 6 -4
10 -3 9 2 -6 35 3 65 24 73 14 6 17 9 6 9 -12 1 -16 11 -16 41 0 22 3 40 7 40
5 0 13 14 19 30 5 17 15 30 22 30 7 0 10 3 6 6 -12 12 23 62 53 76 18 8 30 21
31 33 0 11 3 15 6 8 3 -8 10 -9 21 -3 9 5 29 11 44 14 35 8 58 32 58 61 0 28
18 35 82 30 32 -2 59 3 85 16 20 10 45 19 55 19 26 0 71 -22 86 -42 7 -10 19
-18 27 -18 8 0 19 -9 25 -20 6 -11 18 -20 26 -20 9 0 29 -15 46 -34 17 -20 36
-32 44 -29 8 3 14 0 14 -6 0 -6 6 -11 13 -11 7 0 28 -16 47 -35 19 -19 39 -35
46 -35 6 0 31 -16 55 -35 24 -19 50 -35 57 -35 6 0 12 -6 12 -12 0 -7 16 -24
35 -38 19 -14 35 -32 35 -41 0 -8 16 -32 35 -53 19 -21 35 -44 35 -51 0 -20
35 -45 62 -45 39 0 58 -10 58 -31 0 -14 -7 -19 -28 -19 -16 0 -31 -3 -35 -6
-5 -6 19 -52 34 -64 13 -10 43 -76 50 -110 4 -19 19 -67 32 -106 14 -39 28
-93 32 -120 22 -166 36 -221 60 -232 48 -22 48 -94 0 -103 -15 -3 -21 -13 -23
-39 -7 -110 -58 -334 -82 -365 -5 -5 -13 -30 -20 -54 -6 -24 -16 -55 -22 -70
-6 -14 -13 -37 -15 -51 -2 -14 -8 -26 -14 -28 -5 -2 -9 -17 -9 -34 0 -27 -44
-134 -61 -148 -4 -3 -10 -16 -14 -29 -7 -25 -15 -36 -47 -71 -10 -12 -15 -27
-11 -37 5 -13 3 -15 -12 -10 -16 7 -17 3 -12 -28 3 -19 2 -35 -4 -35 -5 0 -9
-11 -9 -24 0 -13 -7 -29 -15 -36 -8 -7 -15 -21 -15 -31 0 -9 -7 -24 -15 -32
-8 -8 -11 -18 -7 -22 4 -3 0 -12 -9 -18 -9 -7 -19 -22 -23 -35 -4 -12 -12 -19
-18 -16 -6 4 -8 3 -5 -3 8 -12 -14 -73 -26 -73 -4 0 -5 -4 -2 -10 3 -6 1 -10
-5 -10 -6 0 -9 -4 -6 -9 3 -5 0 -11 -8 -14 -9 -4 -12 -14 -9 -27 4 -16 0 -23
-16 -27 -16 -4 -21 -13 -21 -39 0 -20 -5 -34 -12 -34 -7 0 -23 -11 -35 -24
-13 -13 -17 -24 -10 -23 6 0 21 -1 32 -2 l20 -2 -20 -9 c-19 -8 -19 -9 3 -9
24 -1 31 -21 7 -21 -8 0 -15 -4 -15 -10 0 -5 5 -10 10 -10 6 0 10 -4 10 -10 0
-5 -12 -10 -27 -10 -25 -1 -26 -2 -11 -13 17 -14 21 -26 19 -70 0 -16 -5 -26
-11 -22 -5 3 -10 1 -10 -4 0 -6 15 -12 33 -12 17 -1 24 -3 15 -6 -9 -2 -15
-10 -12 -18 4 -8 -3 -15 -18 -18 -20 -4 -19 -4 6 -6 25 -1 27 -3 15 -18 -8 -9
-9 -14 -3 -10 12 7 24 -46 24 -102 0 -17 4 -22 16 -17 12 5 15 2 10 -10 -3 -8
-6 -18 -6 -20 0 -3 -4 -3 -8 0 -4 2 -9 -4 -9 -15 -2 -23 1 -24 21 -3 15 14 16
13 16 -12 0 -26 1 -27 14 -9 12 17 13 17 20 -8 3 -14 3 -33 0 -41 -4 -10 -1
-16 9 -16 8 0 17 -9 20 -21 3 -12 10 -18 15 -15 5 3 12 -3 15 -14 3 -11 0 -20
-5 -20 -6 0 -5 -6 2 -15 12 -14 8 -29 -8 -30 -4 -1 -17 -5 -30 -9 -22 -7 -23
-9 -7 -33 13 -19 15 -31 7 -48 -11 -24 -9 -25 78 -10 32 5 40 4 40 -9 0 -8 -4
-18 -10 -21 -13 -8 -13 -45 0 -45 5 0 6 -8 3 -17 -6 -16 -5 -16 12 1 19 19 20
18 32 -10 7 -16 13 -22 14 -14 1 8 3 22 4 30 1 8 3 26 4 41 1 22 6 25 36 25
29 0 35 -4 35 -20 0 -17 2 -18 9 -7 6 10 8 0 4 -27 -4 -32 -2 -43 10 -48 12
-4 13 -11 5 -35 -12 -35 -3 -83 15 -74 7 4 5 1 -3 -7 -8 -7 -16 -19 -18 -27
-3 -12 0 -12 12 -1 19 15 22 -1 6 -31 -8 -13 -7 -19 0 -19 6 0 8 -4 5 -10 -3
-5 -1 -10 5 -10 6 0 8 -4 5 -10 -3 -5 2 -21 11 -35 9 -14 14 -32 10 -40 -3 -9
-2 -14 3 -11 5 3 11 -3 14 -14 3 -11 1 -18 -4 -14 -5 3 -9 -13 -9 -35 0 -23
-4 -41 -10 -41 -5 0 -10 -7 -10 -15 0 -18 17 -20 23 -2 2 6 8 -9 12 -35 4 -26
4 -51 1 -56 -3 -6 -1 -12 6 -14 8 -3 8 -9 -1 -24 -12 -19 -12 -19 -7 1 6 20 6
20 -9 1 -17 -22 -16 -25 13 -31 14 -2 22 3 25 17 3 11 10 17 17 13 6 -3 10 -3
9 2 -4 21 3 28 30 28 25 0 28 -4 27 -26 -1 -15 3 -25 9 -23 5 2 19 -7 29 -21
21 -28 36 -32 36 -10 0 8 7 15 16 15 10 0 14 -6 10 -15 -8 -21 11 -19 24 3 9
14 10 13 4 -8 -6 -24 -6 -24 10 -5 l15 20 1 -20 c0 -11 -6 -31 -13 -45 -7 -15
-10 -37 -6 -55 5 -23 7 -25 8 -7 0 12 7 22 16 22 9 0 12 -6 9 -15 -4 -8 -2
-15 4 -15 5 0 13 -15 17 -32 4 -18 9 -37 11 -43 18 -61 24 -209 12 -300 -6
-43 -1 -68 12 -60 4 3 11 -3 14 -12 6 -14 9 -14 15 -4 6 10 11 9 25 -4 22 -22
22 -59 0 -51 -14 5 -16 1 -11 -22 3 -16 2 -33 -3 -38 -5 -5 -2 -20 6 -34 11
-17 13 -19 9 -5 -5 17 -4 18 7 7 11 -11 10 -16 -6 -27 -19 -14 -13 -40 7 -29
7 3 1 -3 -12 -14 -15 -12 -21 -24 -16 -32 6 -10 4 -12 -8 -7 -10 3 -17 2 -17
-3 0 -6 4 -10 10 -10 5 0 7 -7 4 -15 -4 -8 -1 -15 6 -15 6 0 8 -4 5 -10 -10
-16 5 -33 19 -21 9 8 18 7 29 -2 14 -10 15 -18 8 -44 -8 -26 -7 -33 5 -33 9 0
14 -11 14 -35 0 -19 5 -35 11 -35 11 0 3 -60 -10 -70 -3 -3 -6 -21 -7 -41 0
-30 3 -35 17 -32 21 6 36 -36 24 -64 -5 -10 -7 -29 -6 -42 2 -16 -1 -21 -10
-16 -8 5 -10 4 -5 -3 4 -7 4 -17 0 -23 -3 -6 -8 -28 -9 -49 -2 -21 -15 -70
-29 -109 -27 -74 -33 -108 -16 -81 5 8 10 10 10 4 0 -6 -11 -24 -25 -40 -34
-39 -31 -48 6 -28 29 15 31 15 26 0 -4 -9 -2 -16 3 -16 6 0 10 7 10 15 0 8 7
23 15 32 8 10 21 27 29 38 14 19 15 19 11 -10 -4 -24 1 -19 24 25 15 30 26 59
23 64 -2 4 0 11 4 15 12 8 38 71 60 144 9 32 21 60 25 63 5 3 9 16 9 29 0 30
30 90 51 103 14 9 18 4 23 -41 6 -42 9 -48 17 -34 6 9 12 25 14 35 6 31 24 67
25 52 16 -242 20 -274 32 -281 8 -6 9 -9 2 -9 -8 0 -15 -34 -19 -92 -4 -51
-14 -110 -21 -132 -8 -22 -12 -47 -9 -56 3 -8 -4 -32 -14 -53 -20 -40 -18 -46
11 -21 16 15 18 15 24 0 6 -17 -21 -107 -43 -141 -14 -21 -18 -69 -5 -61 17
10 -31 -112 -54 -139 -28 -33 -31 -43 -7 -24 15 12 16 12 10 -3 -12 -33 2 -18
29 30 31 54 53 82 65 82 5 0 6 -7 3 -15 -4 -10 -2 -13 7 -10 21 8 73 86 77
115 2 14 7 29 12 34 11 11 30 -1 30 -20 0 -20 17 -18 24 4 2 9 2 -10 -1 -43
-3 -33 -6 -68 -7 -77 -1 -9 -10 -24 -21 -33 -14 -12 -16 -18 -7 -21 23 -10 12
-24 -18 -24 -20 0 -30 -5 -30 -15 0 -8 5 -15 10 -15 21 0 -10 -39 -32 -42 -13
-2 -23 -10 -23 -18 0 -13 116 -15 977 -18 l977 -2 -15 47 c-8 27 -19 77 -24
113 -11 86 -38 218 -51 255 -6 17 -14 50 -19 75 -4 25 -20 110 -34 189 -15 79
-29 147 -31 151 -3 5 -9 46 -14 92 -6 45 -24 182 -40 303 -17 121 -31 245 -31
276 0 30 -7 100 -15 155 -33 221 -55 402 -55 454 0 57 -25 231 -55 380 -37
188 -120 418 -235 655 -113 232 -124 259 -190 460 -12 39 -29 85 -36 103 -19
43 -74 112 -90 112 -7 0 -19 6 -26 13 -7 6 -36 23 -63 36 -28 13 -66 35 -85
47 -44 29 -249 112 -304 124 -23 4 -72 18 -111 29 -38 12 -104 28 -145 36 -41
7 -91 18 -110 24 -74 20 -187 49 -243 61 -31 7 -63 20 -69 28 -16 19 -47 109
-41 116 3 3 0 12 -7 21 -7 8 -10 22 -6 30 5 14 -6 20 -28 16 -5 -1 -6 5 -3 13
4 9 3 17 -1 20 -8 5 -16 60 -16 114 0 18 -3 27 -7 21 -8 -13 -10 -6 -34 96
-26 113 -27 117 -30 180 -4 63 -45 270 -64 318 -6 15 -15 27 -21 27 -6 0 -8 5
-5 10 4 6 10 8 14 6 9 -6 7 62 -3 92 -4 12 -11 22 -15 22 -4 0 -15 28 -25 63
-10 34 -25 80 -34 102 -9 21 -17 42 -17 45 -1 14 -46 126 -90 225 -8 17 -20
45 -27 63 -15 38 -28 42 -28 7 0 -14 -4 -25 -9 -25 -12 0 -21 26 -21 61 0 34
-24 40 -27 6 -7 -67 -7 -67 -60 -53 -37 9 -42 25 -13 44 12 7 17 18 13 29 -4
11 -3 14 5 9 8 -5 11 0 9 16 -2 20 2 23 36 23 45 0 46 9 8 73 -16 27 -39 71
-50 98 -12 27 -30 58 -40 69 -10 11 -24 36 -30 55 -6 19 -23 52 -36 72 -13 20
-27 48 -31 62 -3 14 -10 26 -14 26 -5 0 -14 16 -20 35 -6 19 -18 35 -26 35 -8
0 -14 10 -14 21 0 12 -16 41 -35 65 -19 23 -35 45 -35 49 0 9 -150 155 -159
155 -4 0 -22 16 -41 35 -19 19 -39 35 -46 35 -7 0 -14 3 -16 8 -5 11 -68 55
-111 77 -21 11 -45 28 -54 38 -9 9 -23 17 -32 17 -9 0 -43 14 -76 31 -77 40
-229 79 -303 78 -31 -1 -79 -7 -107 -14z m883 -1004 c9 -5 24 -12 33 -15 17
-5 87 -131 95 -170 3 -12 5 -62 6 -111 2 -98 -8 -125 -54 -149 -12 -7 -40 -23
-61 -34 -40 -23 -76 -34 -198 -60 -66 -13 -81 -13 -110 -2 -40 17 -149 128
-149 152 0 9 -4 18 -8 20 -4 2 -20 24 -35 50 -20 35 -27 60 -27 101 0 50 3 56
40 90 21 21 43 37 49 37 5 0 40 16 78 36 111 58 283 85 341 55z m-523 -153
c-11 -50 -22 -65 -52 -71 -30 -6 -56 14 -61 46 -2 12 10 23 40 36 67 30 81 28
73 -11z m887 -117 c-11 -6 -10 -10 4 -15 9 -3 14 -9 11 -13 -9 -8 -38 17 -31
28 3 5 11 9 17 9 8 0 8 -3 -1 -9z m-894 -27 c33 -23 27 -36 -8 -16 -16 9 -30
20 -30 25 0 11 14 8 38 -9z m-353 -86 c10 -9 -27 -48 -45 -48 -9 0 -18 41 -12
58 4 13 39 7 57 -10z m1243 -13 c-3 -3 -9 2 -12 12 -6 14 -5 15 5 6 7 -7 10
-15 7 -18z m-1321 -7 c-3 -8 -6 -5 -6 6 -1 11 2 17 5 13 3 -3 4 -12 1 -19z
m157 -134 c3 -9 6 -27 6 -40 0 -13 9 -32 20 -41 22 -19 27 -43 9 -43 -6 0 -23
-12 -38 -27 -62 -64 -173 -108 -266 -105 -48 1 -65 -2 -55 -8 12 -8 9 -10 -11
-10 -61 0 -84 11 -122 62 -21 29 -37 62 -37 77 1 24 2 23 21 -13 36 -67 72
-106 100 -106 16 0 20 6 19 28 -4 49 12 93 36 104 13 6 24 18 24 25 0 8 5 11
10 8 6 -3 10 -2 10 2 0 8 112 33 150 33 11 0 20 6 20 13 0 7 19 23 43 34 52
27 53 27 61 7z m1183 -21 c-15 -16 -17 -16 -17 -1 0 9 6 18 13 21 20 7 22 -2
4 -20z m-1014 -158 c23 9 33 -16 12 -31 -10 -7 -23 -15 -29 -17 -7 -3 -7 -9 3
-20 12 -15 10 -17 -17 -17 -38 0 -60 23 -42 45 7 8 9 22 6 31 -5 14 -4 15 8 5
12 -10 13 -8 9 11 -6 22 -6 22 14 5 11 -9 27 -15 36 -12z m-149 -73 c15 -17
15 -22 1 -57 -15 -34 -15 -39 2 -57 12 -14 14 -21 6 -26 -7 -4 -17 -37 -22
-72 -6 -36 -15 -66 -21 -68 -6 -2 -7 -9 -3 -15 3 -7 3 -9 -2 -5 -4 4 -14 3
-22 -4 -10 -8 -17 -7 -27 7 -13 18 -15 18 -40 2 -14 -10 -26 -24 -26 -32 0 -8
16 -44 35 -81 19 -36 35 -75 35 -85 0 -11 5 -29 10 -40 8 -13 7 -19 0 -19 -7
0 -9 -8 -5 -21 4 -12 8 -27 10 -33 8 -42 19 -66 29 -67 6 0 2 -4 -9 -8 -14 -6
-22 -4 -27 8 -6 14 -7 14 -7 -1 -1 -25 -21 -23 -21 2 0 14 -6 19 -21 17 -14
-1 -23 4 -25 16 -4 31 -13 47 -24 47 -5 0 -10 -6 -10 -14 0 -7 -8 -16 -17 -19
-10 -2 -27 -8 -38 -13 -18 -7 -19 -6 -5 11 14 17 13 18 -14 13 -21 -4 -34 0
-49 16 -12 11 -31 26 -42 31 -13 7 -21 23 -23 45 -2 19 -8 40 -14 47 -5 7 -7
21 -4 31 4 11 1 32 -5 48 -7 16 -11 40 -10 54 0 13 -7 40 -16 60 -11 23 -18
62 -19 112 l-1 78 36 6 c19 4 67 8 105 9 91 3 114 10 200 56 39 21 74 38 77
38 3 1 13 -7 23 -17z m116 -333 c0 -5 -6 -9 -14 -9 -15 0 -28 24 -19 34 7 7
33 -13 33 -25z m-305 -309 c-3 -5 -10 -10 -16 -10 -5 0 -9 5 -9 10 0 6 7 10
16 10 8 0 12 -4 9 -10z m1845 -330 c8 -15 8 -18 -3 -14 -8 3 -14 11 -14 19 0
20 4 19 17 -5z m-3307 -310 c-5 -19 -23 -29 -23 -12 0 7 20 32 26 32 1 0 0 -9
-3 -20z m1564 -475 c0 -8 -4 -12 -9 -9 -5 3 -6 10 -3 15 9 13 12 11 12 -6z
m20 -70 c0 -22 -14 -18 -20 4 -3 13 0 18 7 15 7 -3 13 -11 13 -19z m27 9 c3
-8 2 -12 -4 -9 -6 3 -10 10 -10 16 0 14 7 11 14 -7z m-44 -49 c0 -5 -5 -3 -10
5 -5 8 -10 20 -10 25 0 6 5 3 10 -5 5 -8 10 -19 10 -25z m740 20 c0 -8 -4 -15
-10 -15 -5 0 -10 7 -10 15 0 8 5 15 10 15 6 0 10 -7 10 -15z m-647 -37 c-7
-41 -22 -71 -23 -47 0 18 20 79 26 79 2 0 1 -15 -3 -32z m17 -58 c-6 -11 -7
-20 -2 -20 5 0 9 -7 9 -15 0 -11 -4 -12 -14 -4 -16 14 -17 31 -1 47 17 17 20
15 8 -8z m-49 -154 c-16 -42 -19 -46 -25 -28 -4 12 -3 29 2 39 5 10 8 29 7 43
-3 33 7 48 16 24 7 -17 8 -16 10 6 2 22 3 21 6 -5 2 -16 -5 -52 -16 -79z m49
54 c-1 -8 -8 -24 -16 -35 -16 -19 -16 -19 -8 5 4 14 7 36 6 50 -1 20 0 22 8
10 5 -8 10 -22 10 -30z m727 -62 c-3 -8 -6 -5 -6 6 -1 11 2 17 5 13 3 -3 4
-12 1 -19z m33 -13 c0 -5 -5 -3 -10 5 -5 8 -10 20 -10 25 0 6 5 3 10 -5 5 -8
10 -19 10 -25z m-873 -24 c0 -11 -5 -18 -9 -15 -4 3 -5 11 -1 19 7 21 12 19
10 -4z m-155 -8 c-6 -2 -10 -9 -6 -14 3 -5 -2 -9 -10 -9 -17 0 -21 12 -9 23 3
4 13 7 22 6 11 0 12 -2 3 -6z m211 -23 c-3 -11 -10 -23 -16 -27 -5 -3 -8 -2
-5 3 3 5 8 17 11 27 9 24 16 22 10 -3z m-165 -9 c3 -8 -1 -12 -9 -9 -7 2 -15
10 -17 17 -3 8 1 12 9 9 7 -2 15 -10 17 -17z m-28 -41 c0 -5 -5 -10 -11 -10
-5 0 -7 5 -4 10 3 6 8 10 11 10 2 0 4 -4 4 -10z m137 -5 c0 -17 -13 -20 -21
-6 -4 5 0 12 6 14 7 3 13 6 14 6 0 1 1 -6 1 -14z m863 -2 c0 -14 -10 -16 -35
-7 -11 5 -13 9 -5 14 18 11 40 8 40 -7z m210 -23 c0 -5 -4 -10 -10 -10 -5 0
-10 5 -10 10 0 6 5 10 10 10 6 0 10 -4 10 -10z m-1210 -60 c0 -23 7 -46 17
-56 12 -12 14 -19 6 -21 -7 -3 -10 -17 -6 -39 3 -19 1 -34 -4 -34 -5 0 -7 -20
-3 -49 3 -28 3 -48 -1 -45 -4 2 -9 -3 -13 -11 -8 -23 -33 -18 -39 8 -6 21 -5
21 8 3 8 -11 17 -17 20 -14 3 2 -4 13 -16 23 -17 17 -22 17 -30 5 -8 -13 -12
-12 -24 4 -9 11 -11 24 -6 30 10 13 -16 79 -28 71 -5 -3 -7 4 -4 15 3 10 10
18 16 17 7 -1 11 12 10 33 -2 31 -1 32 6 10 l9 -25 1 24 c1 16 5 21 16 17 8
-3 15 -1 15 4 0 6 -4 10 -10 10 -15 0 -12 27 4 33 7 3 18 1 24 -5 6 -6 12 -6
16 0 3 6 2 13 -4 17 -16 10 -12 25 5 19 10 -4 15 -20 15 -44z m1180 30 c0 -11
-4 -20 -9 -20 -5 0 -7 9 -4 20 3 11 7 20 9 20 2 0 4 -9 4 -20z m-1163 -32 c-3
-8 -6 -5 -6 6 -1 11 2 17 5 13 3 -3 4 -12 1 -19z m1248 -7 c-8 -14 -25 -14
-25 0 0 5 5 7 10 4 6 -3 10 -1 10 6 0 7 3 10 6 6 3 -3 3 -10 -1 -16z m32 -133
c-3 -7 -5 -2 -5 12 0 14 2 19 5 13 2 -7 2 -19 0 -25z m30 -35 c-3 -10 -5 -2
-5 17 0 19 2 27 5 18 2 -10 2 -26 0 -35z m-27 -32 c-6 -12 -8 -25 -5 -30 3 -5
0 -11 -7 -13 -9 -3 -8 -9 5 -22 9 -10 15 -22 12 -27 -4 -5 -2 -9 3 -9 5 0 9
-6 9 -12 0 -7 4 -22 9 -32 5 -15 4 -17 -6 -11 -10 6 -11 2 -6 -19 8 -32 -10
-35 -20 -4 -4 13 -14 29 -23 36 -14 12 -13 13 7 9 17 -4 21 -2 14 6 -5 7 -13
33 -16 59 -5 36 -3 53 10 73 20 30 31 27 14 -4z m17 -316 c-15 -16 -19 -13
-11 9 3 9 10 13 15 10 5 -3 3 -11 -4 -19z m-1500 -57 c-3 -8 -6 -5 -6 6 -1 11
2 17 5 13 3 -3 4 -12 1 -19z m1522 5 c-1 -16 -18 -48 -18 -36 -1 6 -4 18 -7
27 -4 11 -1 16 10 16 9 0 16 -3 15 -7z m187 -46 c5 -1 7 -6 5 -12 -2 -5 -4
-18 -5 -27 0 -20 -15 -25 -17 -5 -1 6 -3 25 -5 42 -2 18 0 25 5 17 5 -8 12
-14 17 -15z m-86 3 c0 -5 -2 -10 -4 -10 -3 0 -8 5 -11 10 -3 6 -1 10 4 10 6 0
11 -4 11 -10z m-1353 -32 c-3 -8 -6 -5 -6 6 -1 11 2 17 5 13 3 -3 4 -12 1 -19z
m1403 -23 c0 -5 -5 -3 -10 5 -5 8 -10 20 -10 25 0 6 5 3 10 -5 5 -8 10 -19 10
-25z m70 15 c0 -5 -2 -10 -4 -10 -3 0 -8 5 -11 10 -3 6 -1 10 4 10 6 0 11 -4
11 -10z m-1403 -32 c-3 -8 -6 -5 -6 6 -1 11 2 17 5 13 3 -3 4 -12 1 -19z m22
-63 c0 -5 -4 -3 -9 5 -5 8 -9 22 -9 30 0 16 17 -16 18 -35z m1404 -19 c4 -10
1 -13 -8 -9 -8 3 -12 9 -9 14 7 12 11 11 17 -5z m-1501 -341 c3 -13 1 -22 -3
-19 -9 5 -13 44 -5 44 2 0 6 -11 8 -25z m-306 -51 c-4 -9 -9 -15 -11 -12 -3 3
-3 13 1 22 4 9 9 15 11 12 3 -3 3 -13 -1 -22z m324 -19 c0 -8 -2 -15 -4 -15
-2 0 -6 7 -10 15 -3 8 -1 15 4 15 6 0 10 -7 10 -15z m1540 -65 c0 -5 -4 -10
-10 -10 -5 0 -10 5 -10 10 0 6 5 10 10 10 6 0 10 -4 10 -10z m-1800 -70 c0 -5
-4 -10 -10 -10 -5 0 -10 5 -10 10 0 6 5 10 10 10 6 0 10 -4 10 -10z m-710
-149 c0 -5 -7 -16 -15 -25 -17 -17 -20 -30 -5 -21 6 3 10 1 10 -4 0 -6 -4 -11
-9 -11 -5 0 -12 -8 -14 -17 -3 -10 -5 -1 -6 20 0 20 4 37 9 37 6 0 10 7 10 15
0 8 5 15 10 15 6 0 10 -4 10 -9z m-30 -226 c0 -5 -5 -3 -10 5 -5 8 -10 20 -10
25 0 6 5 3 10 -5 5 -8 10 -19 10 -25z m590 31 c0 -3 -4 -8 -10 -11 -5 -3 -10
-1 -10 4 0 6 5 11 10 11 6 0 10 -2 10 -4z m-684 -94 c-3 -2 1 -14 9 -26 8 -11
15 -27 15 -36 0 -13 -1 -13 -10 0 -6 10 -10 11 -10 3 0 -7 -5 -13 -11 -13 -6
0 -9 6 -6 14 3 8 -2 20 -11 28 -15 12 -16 11 -3 -4 8 -11 9 -18 3 -18 -14 0
-26 19 -27 43 -1 11 3 16 12 13 8 -3 15 5 19 21 l7 27 9 -24 c5 -12 6 -25 4
-28z m40 -93 c3 -6 1 -14 -5 -18 -8 -5 -5 -13 9 -26 11 -10 18 -21 15 -24 -3
-6 3 -41 20 -119 4 -15 2 -21 -5 -17 -5 3 -10 -1 -10 -9 0 -9 -4 -16 -10 -16
-5 0 -7 -8 -4 -17 4 -12 0 -10 -14 6 -15 18 -21 21 -25 10 -5 -12 -7 -12 -16
1 -5 8 -7 18 -4 24 4 5 -1 7 -11 3 -14 -6 -17 -3 -12 9 5 12 2 15 -10 10 -14
-5 -15 -4 -4 9 7 8 18 12 24 8 7 -5 3 0 -7 9 -11 10 -23 15 -28 12 -5 -3 -9
-1 -9 4 0 12 29 24 41 16 5 -3 9 -1 9 5 0 6 6 8 14 5 19 -7 29 25 12 41 -16
16 -27 10 -19 -11 3 -8 1 -14 -4 -14 -5 0 -14 15 -21 33 -12 30 -11 33 15 54
31 25 48 29 59 12z m2726 -21 c-7 -7 -12 -8 -12 -2 0 14 12 26 19 19 2 -3 -1
-11 -7 -17z m-2822 -64 c0 -8 -4 -12 -10 -9 -5 3 -10 10 -10 16 0 5 5 9 10 9
6 0 10 -7 10 -16z m126 -210 c27 -28 32 -69 9 -78 -18 -7 -21 20 -2 28 6 3 3
4 -7 3 -10 -1 -21 4 -23 11 -3 6 0 12 6 12 6 0 11 5 11 10 0 6 -3 9 -7 9 -22
-4 -32 3 -27 16 8 20 13 19 40 -11z m31 20 c-3 -3 -12 -4 -19 -1 -8 3 -5 6 6
6 11 1 17 -2 13 -5z m23 -85 c0 -6 -4 -7 -10 -4 -5 3 -10 11 -10 16 0 6 5 7
10 4 6 -3 10 -11 10 -16z m-60 -40 c0 -18 -18 -9 -23 12 -4 16 -3 18 9 8 8 -6
14 -15 14 -20z m40 11 c0 -5 -4 -10 -10 -10 -5 0 -10 5 -10 10 0 6 5 10 10 10
6 0 10 -4 10 -10z m60 -14 c0 -2 -7 -6 -15 -10 -8 -3 -15 -1 -15 4 0 6 7 10
15 10 8 0 15 -2 15 -4z m10 -40 c0 -3 -4 -8 -10 -11 -5 -3 -10 -1 -10 4 0 6 5
11 10 11 6 0 10 -2 10 -4z m-43 -108 c-3 -8 -6 -5 -6 6 -1 11 2 17 5 13 3 -3
4 -12 1 -19z m45 -2 c-4 -14 -2 -17 9 -11 12 8 12 6 0 -8 -10 -13 -17 -15 -27
-6 -20 17 -17 45 5 45 13 0 17 -6 13 -20z m18 -62 c0 -2 -7 -4 -15 -4 -8 0
-15 4 -15 10 0 5 7 7 15 4 8 -4 15 -8 15 -10z m34 0 c9 -8 16 -20 16 -25 0 -5
-9 0 -20 11 -19 19 -25 30 -16 30 3 0 12 -7 20 -16z m606 -14 c0 -5 -4 -10 -9
-10 -6 0 -13 5 -16 10 -3 6 1 10 9 10 9 0 16 -4 16 -10z m-1000 -25 c0 -8 -2
-15 -4 -15 -2 0 -6 7 -10 15 -3 8 -1 15 4 15 6 0 10 -7 10 -15z m1090 -121 c0
-2 -7 -4 -15 -4 -8 0 -15 4 -15 10 0 5 7 7 15 4 8 -4 15 -8 15 -10z m-673
-100 c-7 -7 -37 7 -37 17 0 6 9 5 21 -1 11 -7 19 -14 16 -16z m150 20 c-3 -3
-12 -4 -19 -1 -8 3 -5 6 6 6 11 1 17 -2 13 -5z m546 -124 c-3 -11 -7 -20 -8
-20 -1 0 -5 9 -8 20 -3 12 0 20 8 20 8 0 11 -8 8 -20z m-1736 -62 c-3 -8 -6
-5 -6 6 -1 11 2 17 5 13 3 -3 4 -12 1 -19z"/>
<path d="M4300 5958 c-29 -10 -95 -104 -112 -159 -12 -43 4 -99 28 -99 8 0 14
-4 14 -8 0 -5 6 -9 13 -10 6 0 35 -4 62 -7 60 -9 68 -9 123 1 23 3 42 11 42
15 0 5 3 8 8 7 4 -2 20 7 36 20 34 26 32 27 -25 7 -24 -9 -57 -16 -74 -15 -78
1 -83 8 -26 36 22 10 37 22 35 26 -3 5 2 8 11 8 8 0 23 4 33 10 24 14 76 34
84 32 17 -4 58 19 58 31 0 15 -157 67 -201 67 -14 0 -29 3 -33 7 -4 4 -15 8
-24 8 -9 0 -17 5 -17 12 0 18 -8 21 -35 11z m214 -84 c20 -19 5 -54 -24 -54
-10 0 -25 -3 -34 -6 -13 -5 -16 2 -16 35 0 39 2 41 29 41 16 0 37 -7 45 -16z
m-91 -39 c-3 -8 -9 -15 -14 -15 -10 0 -12 24 -3 33 11 11 24 -3 17 -18z"/>
<path d="M3540 4861 c0 -6 5 -13 10 -16 6 -3 10 1 10 9 0 9 -4 16 -10 16 -5 0
-10 -4 -10 -9z"/>
<path d="M3490 4710 c0 -5 5 -10 11 -10 5 0 7 5 4 10 -3 6 -8 10 -11 10 -2 0
-4 -4 -4 -10z"/>
<path d="M3530 4670 c0 -5 7 -10 16 -10 8 0 12 5 9 10 -3 6 -10 10 -16 10 -5
0 -9 -4 -9 -10z"/>
<path d="M3540 2890 c0 -15 21 -23 32 -12 6 6 2 11 -11 15 -12 3 -21 1 -21 -3z"/>
<path d="M3595 2870 c3 -5 8 -10 11 -10 2 0 4 5 4 10 0 6 -5 10 -11 10 -5 0
-7 -4 -4 -10z"/>
<path d="M4436 5372 c-7 -12 3 -42 14 -42 5 0 17 -3 27 -6 16 -5 16 -4 2 8 -8
7 -20 21 -26 32 -6 11 -13 14 -17 8z"/>
<path d="M4238 5359 c-27 -15 -22 -29 10 -29 34 0 57 14 48 29 -9 14 -35 14
-58 0z"/>
<path d="M4514 5295 c8 -8 18 -15 22 -15 3 0 1 7 -6 15 -7 8 -17 15 -22 15 -5
0 -3 -7 6 -15z"/>
<path d="M4626 5213 c15 -22 19 -48 20 -118 1 -92 26 -177 46 -157 4 4 10 51
12 103 2 52 7 101 10 109 8 20 -59 90 -86 90 -20 0 -20 0 -2 -27z"/>
<path d="M4470 5115 c6 -8 9 -18 6 -24 -3 -5 0 -11 6 -14 10 -3 11 -9 1 -26
-7 -11 -13 -27 -13 -35 0 -8 -6 -17 -12 -19 -8 -4 -7 -6 4 -6 9 -1 24 7 34 16
12 13 19 14 22 5 6 -19 82 65 82 92 0 8 -73 26 -109 26 -28 0 -32 -2 -21 -15z"/>
<path d="M4425 5110 c4 -6 11 -8 16 -5 14 9 11 15 -7 15 -8 0 -12 -5 -9 -10z"/>
<path d="M4294 5098 c-5 -7 -2 -9 9 -5 9 3 17 1 19 -5 5 -14 38 -3 38 12 0 14
-57 13 -66 -2z"/>
<path d="M4255 5080 c-3 -5 3 -10 15 -10 12 0 18 5 15 10 -3 6 -10 10 -15 10
-5 0 -12 -4 -15 -10z"/>
<path d="M4420 4970 c0 -13 11 -13 30 0 12 8 11 10 -7 10 -13 0 -23 -4 -23
-10z"/>
<path d="M5470 4531 c0 -5 5 -13 10 -16 6 -3 10 -2 10 4 0 5 -4 13 -10 16 -5
3 -10 2 -10 -4z"/>
<path d="M4415 4350 c-3 -5 -1 -10 4 -10 6 0 11 5 11 10 0 6 -2 10 -4 10 -3 0
-8 -4 -11 -10z"/>
<path d="M2261 4324 c0 -11 3 -14 6 -6 3 7 2 16 -1 19 -3 4 -6 -2 -5 -13z"/>
<path d="M4158 4243 c7 -3 16 -2 19 1 4 3 -2 6 -13 5 -11 0 -14 -3 -6 -6z"/>
<path d="M4215 3990 c-3 -5 1 -10 9 -10 8 0 18 5 21 10 3 6 -1 10 -9 10 -8 0
-18 -4 -21 -10z"/>
<path d="M4150 3956 c0 -9 5 -16 10 -16 6 0 10 4 10 9 0 6 -4 13 -10 16 -5 3
-10 -1 -10 -9z"/>
<path d="M4200 3960 c0 -5 5 -10 10 -10 6 0 10 5 10 10 0 6 -4 10 -10 10 -5 0
-10 -4 -10 -10z"/>
<path d="M2060 3940 c0 -5 5 -10 10 -10 6 0 10 5 10 10 0 6 -4 10 -10 10 -5 0
-10 -4 -10 -10z"/>
<path d="M4198 3923 c7 -3 16 -2 19 1 4 3 -2 6 -13 5 -11 0 -14 -3 -6 -6z"/>
<path d="M4120 3875 c-7 -9 -11 -18 -8 -20 3 -3 11 1 18 10 7 9 11 18 8 20 -3
3 -11 -1 -18 -10z"/>
<path d="M4147 3863 c-13 -12 -7 -22 10 -16 11 4 14 3 9 -5 -4 -7 -2 -12 3
-12 6 0 11 4 11 9 0 13 -26 32 -33 24z"/>
<path d="M4317 3747 c4 -27 3 -29 -11 -18 -11 9 -16 10 -16 2 0 -6 7 -14 16
-18 8 -3 13 -11 10 -18 -3 -9 2 -11 16 -7 18 4 19 7 6 16 -10 8 -12 19 -7 38
5 18 3 28 -6 32 -10 3 -12 -4 -8 -27z"/>
<path d="M4345 3740 c-3 -5 1 -10 9 -10 9 0 16 5 16 10 0 6 -4 10 -9 10 -6 0
-13 -4 -16 -10z"/>
<path d="M3570 2625 c0 -8 2 -15 4 -15 2 0 6 7 10 15 3 8 1 15 -4 15 -6 0 -10
-7 -10 -15z"/>
<path d="M3510 2549 c0 -5 5 -7 10 -4 6 3 10 8 10 11 0 2 -4 4 -10 4 -5 0 -10
-5 -10 -11z"/>
<path d="M4871 2374 c0 -11 3 -14 6 -6 3 7 2 16 -1 19 -3 4 -6 -2 -5 -13z"/>
<path d="M4867 2230 c-21 -25 -21 -30 -3 -30 8 0 18 9 21 21 9 29 2 32 -18 9z"/>
<path d="M5095 2200 c3 -5 8 -10 11 -10 2 0 4 5 4 10 0 6 -5 10 -11 10 -5 0
-7 -4 -4 -10z"/>
<path d="M4830 2190 c0 -5 7 -10 16 -10 8 0 12 5 9 10 -3 6 -10 10 -16 10 -5
0 -9 -4 -9 -10z"/>
<path d="M4800 2160 c-9 -6 -10 -10 -3 -10 6 0 15 5 18 10 8 12 4 12 -15 0z"/>
<path d="M3840 2131 c0 -6 4 -12 8 -15 5 -3 9 1 9 9 0 8 -4 15 -9 15 -4 0 -8
-4 -8 -9z"/>
<path d="M3672 2050 c0 -14 2 -19 5 -12 2 6 2 18 0 25 -3 6 -5 1 -5 -13z"/>
<path d="M3911 2053 c-1 -12 4 -25 9 -28 12 -7 12 2 0 30 -8 19 -9 19 -9 -2z"/>
<path d="M3902 1980 c0 -14 2 -19 5 -12 2 6 2 18 0 25 -3 6 -5 1 -5 -13z"/>
<path d="M3863 1946 c-9 -11 -8 -15 5 -18 12 -4 18 1 18 13 0 22 -6 23 -23 5z"/>
<path d="M3872 1790 c0 -19 2 -27 5 -17 2 9 2 25 0 35 -3 9 -5 1 -5 -18z"/>
<path d="M5222 1548 c-1 -14 -5 -35 -8 -45 -5 -14 -4 -15 5 -7 7 7 11 26 8 45
-3 28 -4 29 -5 7z"/>
<path d="M5221 1464 c0 -11 3 -14 6 -6 3 7 2 16 -1 19 -3 4 -6 -2 -5 -13z"/>
<path d="M3430 1386 c0 -9 5 -16 10 -16 6 0 10 4 10 9 0 6 -4 13 -10 16 -5 3
-10 -1 -10 -9z"/>
<path d="M3832 1280 c0 -14 2 -19 5 -12 2 6 2 18 0 25 -3 6 -5 1 -5 -13z"/>
<path d="M3550 1241 c0 -9 33 -41 44 -41 4 0 2 8 -3 19 -11 20 -41 36 -41 22z"/>
<path d="M3372 1205 c-11 -12 -10 -15 3 -15 8 0 15 7 15 15 0 18 -2 18 -18 0z"/>
<path d="M4529 1123 c2 -29 6 -41 11 -32 8 15 2 79 -9 79 -3 0 -4 -21 -2 -47z"/>
<path d="M3810 1125 c-2 -11 -3 -27 -2 -35 0 -8 -5 -40 -13 -70 -15 -56 -14
-67 4 -56 6 4 10 23 9 43 -1 20 3 38 9 40 5 2 8 16 6 31 -3 22 -2 23 5 8 8
-19 9 -19 14 2 4 15 2 22 -7 22 -8 0 -16 8 -18 18 -4 15 -5 14 -7 -3z"/>
<path d="M3371 1114 c0 -11 3 -14 6 -6 3 7 2 16 -1 19 -3 4 -6 -2 -5 -13z"/>
<path d="M4561 1055 c-1 -17 -3 -18 -11 -5 -6 9 -10 10 -10 3 0 -6 5 -15 10
-18 6 -3 10 -14 10 -23 0 -15 -2 -15 -10 -2 -15 24 -11 -2 5 -30 9 -16 15 -19
15 -10 1 13 18 -17 24 -45 8 -29 17 -68 21 -90 3 -14 10 -23 15 -20 5 3 5 18
0 37 -5 17 -7 34 -5 39 3 4 1 10 -4 13 -5 3 -12 22 -16 42 -3 20 -13 43 -21
51 -16 16 -19 37 -4 28 6 -3 10 -1 10 4 0 6 -4 11 -9 11 -5 0 -12 8 -14 18 -4
14 -5 14 -6 -3z"/>
<path d="M3759 898 c-6 -24 -15 -53 -20 -66 -5 -13 -7 -28 -4 -33 4 -5 2 -9
-2 -9 -5 0 -14 -21 -21 -47 -8 -27 -18 -56 -23 -65 -9 -18 -13 -95 -4 -86 9 9
75 242 75 265 0 13 4 23 8 23 5 0 9 6 9 13 0 6 4 20 8 30 4 10 3 17 -4 17 -5
0 -15 -19 -22 -42z"/>
<path d="M3440 800 c0 -5 5 -10 10 -10 6 0 10 5 10 10 0 6 -4 10 -10 10 -5 0
-10 -4 -10 -10z"/>
<path d="M4640 795 c0 -5 5 -17 10 -25 5 -8 10 -10 10 -5 0 6 -5 17 -10 25 -5
8 -10 11 -10 5z"/>
<path d="M4657 744 c-3 -5 1 -15 9 -22 16 -14 18 -5 5 17 -5 7 -11 9 -14 5z"/>
<path d="M3465 706 c0 -13 3 -22 8 -19 4 2 7 -5 7 -16 0 -12 5 -21 10 -21 13
0 13 10 -1 49 -13 37 -24 40 -24 7z"/>
<path d="M3505 550 c-3 -4 11 -8 31 -8 40 0 41 5 1 12 -14 2 -29 1 -32 -4z"/>
<path d="M3566 345 c4 -8 10 -15 15 -15 4 0 6 7 3 15 -4 8 -10 15 -15 15 -4 0
-6 -7 -3 -15z"/>
<path d="M5545 170 c-3 -5 -1 -10 4 -10 6 0 11 5 11 10 0 6 -2 10 -4 10 -3 0
-8 -4 -11 -10z"/>
</g>
</svg>
