<svg version="1.1" id="Layer_1" xmlns="http://www.w3.org/2000/svg" xmlns:xlink="http://www.w3.org/1999/xlink" x="0px" y="0px" width="410px" height="410px" viewBox="0 0 410 410" enable-background="new 0 0 1400 1400" xml:space="preserve"><g id="XMLID_1_"><path id="XMLID_125_" fill-rule="evenodd" clip-rule="evenodd" fill="#C2DBF4" width="1400" height="1400" d="M0 0h410v410H0V0z"/><path id="XMLID_124_" fill-rule="evenodd" clip-rule="evenodd" fill="#A1BDEF" d="M53.125 374.828h305.187V204.795c0 -82.645 -67.62 -150.265 -150.265 -150.265h-4.657c-82.645 0 -150.265 67.62 -150.265 150.265v170.033z"/><path id="XMLID_123_" fill-rule="evenodd" clip-rule="evenodd" fill="#8CAEEB" d="m57.81 374.828 36.022 -38.862h49.405c6.648 0 11.275 -14.32 18.713 -14.32h82.117c8.845 0 12.945 14.32 20.94 14.32h52.627l36.022 39.36h-13.793l-268.229 -0.468H57.81z"/><path id="XMLID_122_" x="592.9" y="219.9" fill-rule="evenodd" clip-rule="evenodd" fill="#4A4587" width="227.3" height="28.1" d="M173.635 64.4h66.567v8.229h-66.567v-8.23z"/><path id="XMLID_121_" x="592.9" y="261.5" fill-rule="evenodd" clip-rule="evenodd" fill="#FFF3F1" width="227.3" height="132.6" d="M173.635 76.582h66.567v38.833h-66.567V76.582z"/><path id="XMLID_120_" x="607.8" y="306.5" fill-rule="evenodd" clip-rule="evenodd" fill="#DBDCDC" width="47.3" height="72.6" d="M177.998 89.76h13.852v21.262h-13.852V89.76z"/><path id="XMLID_119_" x="607.8" y="287.4" fill-rule="evenodd" clip-rule="evenodd" fill="#DBDCDC" width="74.4" height="9.7" d="M177.998 84.167h21.788v2.84h-21.788v-2.84z"/><path id="XMLID_118_" x="607.8" y="270.3" fill-rule="evenodd" clip-rule="evenodd" fill="#FF6239" width="74.4" height="9.7" d="M177.998 79.16h21.788V82h-21.788v-2.84z"/><path id="XMLID_117_" x="666.9" y="306.5" fill-rule="evenodd" clip-rule="evenodd" fill="#DBDCDC" width="54.2" height="9.7" d="M195.307 89.76h15.873v2.84h-15.873v-2.84z"/><path id="XMLID_116_" x="666.9" y="322.2" fill-rule="evenodd" clip-rule="evenodd" fill="#DBDCDC" width="54.2" height="9.7" d="M195.307 94.358h15.873v2.84h-15.873v-2.84z"/><path id="XMLID_115_" x="666.9" y="337.9" fill-rule="evenodd" clip-rule="evenodd" fill="#DBDCDC" width="54.2" height="9.7" d="M195.307 98.957h15.873v2.84h-15.873v-2.84z"/><path id="XMLID_114_" x="666.9" y="353.6" fill-rule="evenodd" clip-rule="evenodd" fill="#DBDCDC" width="54.2" height="9.7" d="M195.307 103.555h15.873v2.84h-15.873v-2.84z"/><path id="XMLID_113_" x="666.9" y="369.4" fill-rule="evenodd" clip-rule="evenodd" fill="#DBDCDC" width="54.2" height="9.7" d="M195.307 108.182h15.873v2.84h-15.873v-2.84z"/><path id="XMLID_112_" x="761.1" y="271.4" fill-rule="evenodd" clip-rule="evenodd" fill="#B7DCEC" width="47.3" height="72.6" d="M222.893 79.482h13.852v21.261h-13.852V79.481z"/><path id="XMLID_111_" x="742.3" y="271.4" fill-rule="evenodd" clip-rule="evenodd" fill="#DBDCDC" width="4.5" height="107.7" d="M217.388 79.482h1.318v31.54h-1.318V79.482z"/><path id="XMLID_110_" fill-rule="evenodd" clip-rule="evenodd" fill="#FFF3F1" d="M222.688 66.508c1.113 0 2.05 0.908 2.05 2.05s-0.908 2.05 -2.05 2.05c-1.113 0 -2.05 -0.908 -2.05 -2.05s0.908 -2.05 2.05 -2.05"/><path id="XMLID_109_" fill-rule="evenodd" clip-rule="evenodd" fill="#FFF3F1" d="M228.78 66.508c1.113 0 2.05 0.908 2.05 2.05s-0.908 2.05 -2.05 2.05c-1.113 0 -2.05 -0.908 -2.05 -2.05s0.937 -2.05 2.05 -2.05"/><path id="XMLID_108_" fill-rule="evenodd" clip-rule="evenodd" fill="#FF6239" d="M234.9 66.508c1.113 0 2.02 0.908 2.02 2.05s-0.908 2.05 -2.02 2.05 -2.05 -0.908 -2.05 -2.05 0.908 -2.05 2.05 -2.05"/><path id="XMLID_107_" x="911.1" y="372.9" fill-rule="evenodd" clip-rule="evenodd" fill="#4A4587" width="227.3" height="28.1" d="M266.822 109.207h66.566v8.23h-66.566v-8.23z"/><path id="XMLID_106_" x="911.1" y="414.5" fill-rule="evenodd" clip-rule="evenodd" fill="#FFF3F1" width="227.3" height="132.6" d="M266.822 121.39h66.566v38.833h-66.566v-38.833z"/><path id="XMLID_105_" x="926.1" y="459.5" fill-rule="evenodd" clip-rule="evenodd" fill="#FF6239" width="47.3" height="72.6" d="M271.215 134.568h13.852v21.262h-13.852v-21.262z"/><path id="XMLID_104_" x="926.1" y="440.4" fill-rule="evenodd" clip-rule="evenodd" fill="#DBDCDC" width="74.4" height="9.7" d="M271.215 128.975h21.788v2.84h-21.788v-2.84z"/><path id="XMLID_103_" x="926.1" y="423.3" fill-rule="evenodd" clip-rule="evenodd" fill="#DBDCDC" width="74.4" height="9.7" d="M271.215 123.967h21.788v2.84h-21.788v-2.84z"/><path id="XMLID_102_" x="985.1" y="459.5" fill-rule="evenodd" clip-rule="evenodd" fill="#DBDCDC" width="54.2" height="9.7" d="M288.493 134.568h15.873v2.84h-15.873v-2.84z"/><path id="XMLID_101_" x="985.1" y="475.2" fill-rule="evenodd" clip-rule="evenodd" fill="#DBDCDC" width="54.2" height="9.7" d="M288.493 139.165h15.873v2.84h-15.873v-2.84z"/><path id="XMLID_100_" x="985.1" y="490.9" fill-rule="evenodd" clip-rule="evenodd" fill="#DBDCDC" width="54.2" height="9.7" d="M288.493 143.763h15.873v2.84h-15.873v-2.84z"/><path id="XMLID_99_" x="985.1" y="506.6" fill-rule="evenodd" clip-rule="evenodd" fill="#DBDCDC" width="54.2" height="9.7" d="M288.493 148.362h15.873v2.84h-15.873v-2.84z"/><path id="XMLID_98_" x="985.1" y="522.4" fill-rule="evenodd" clip-rule="evenodd" fill="#DBDCDC" width="54.2" height="9.7" d="M288.493 152.988h15.873v2.84h-15.873v-2.84z"/><path id="XMLID_97_" x="1079.3" y="424.4" fill-rule="evenodd" clip-rule="evenodd" fill="#B7DCEC" width="47.3" height="72.6" d="M316.08 124.288h13.852v21.262h-13.852v-21.262z"/><path id="XMLID_96_" x="1060.5" y="424.4" fill-rule="evenodd" clip-rule="evenodd" fill="#DBDCDC" width="4.5" height="107.7" d="M310.575 124.288h1.318v31.54h-1.318v-31.54z"/><path id="XMLID_95_" fill-rule="evenodd" clip-rule="evenodd" fill="#FFF3F1" d="M315.875 111.315c1.113 0 2.05 0.908 2.05 2.05s-0.908 2.05 -2.05 2.05 -2.05 -0.908 -2.05 -2.05 0.937 -2.05 2.05 -2.05"/><path id="XMLID_94_" fill-rule="evenodd" clip-rule="evenodd" fill="#FFF3F1" d="M321.997 111.315c1.113 0 2.05 0.908 2.05 2.05s-0.908 2.05 -2.05 2.05 -2.05 -0.908 -2.05 -2.05 0.908 -2.05 2.05 -2.05"/><path id="XMLID_93_" fill-rule="evenodd" clip-rule="evenodd" fill="#FF6239" d="M328.088 111.315c1.113 0 2.02 0.908 2.02 2.05s-0.908 2.05 -2.02 2.05 -2.05 -0.908 -2.05 -2.05 0.937 -2.05 2.05 -2.05"/><path id="XMLID_92_" x="289.2" y="378.9" fill-rule="evenodd" clip-rule="evenodd" fill="#4A4587" width="227.3" height="28.1" d="M84.695 110.963h66.567v8.23H84.695v-8.23z"/><path id="XMLID_91_" x="289.2" y="420.5" fill-rule="evenodd" clip-rule="evenodd" fill="#FFF3F1" width="227.3" height="132.6" d="M84.695 123.147h66.567v38.833H84.695v-38.833z"/><path id="XMLID_90_" x="304.1" y="465.5" fill-rule="evenodd" clip-rule="evenodd" fill="#FF6239" width="47.3" height="72.6" d="M89.058 136.325h13.852v21.262H89.058v-21.262z"/><path id="XMLID_89_" x="304.1" y="446.4" fill-rule="evenodd" clip-rule="evenodd" fill="#DBDCDC" width="74.4" height="9.7" d="M89.058 130.732h21.788v2.84H89.058v-2.84z"/><path id="XMLID_88_" x="304.1" y="429.3" fill-rule="evenodd" clip-rule="evenodd" fill="#DBDCDC" width="74.4" height="9.7" d="M89.058 125.723h21.788v2.84H89.058v-2.84z"/><path id="XMLID_87_" x="363.2" y="465.5" fill-rule="evenodd" clip-rule="evenodd" fill="#DBDCDC" width="54.2" height="9.7" d="M106.365 136.325h15.873v2.84h-15.873v-2.84z"/><path id="XMLID_86_" x="363.2" y="481.2" fill-rule="evenodd" clip-rule="evenodd" fill="#DBDCDC" width="54.2" height="9.7" d="M106.365 140.923h15.873v2.84h-15.873v-2.84z"/><path id="XMLID_85_" x="363.2" y="496.9" fill-rule="evenodd" clip-rule="evenodd" fill="#DBDCDC" width="54.2" height="9.7" d="M106.365 145.52h15.873v2.84h-15.873v-2.84z"/><path id="XMLID_84_" x="363.2" y="512.6" fill-rule="evenodd" clip-rule="evenodd" fill="#DBDCDC" width="54.2" height="9.7" d="M106.365 150.118h15.873v2.84h-15.873v-2.84z"/><path id="XMLID_83_" x="363.2" y="528.4" fill-rule="evenodd" clip-rule="evenodd" fill="#DBDCDC" width="54.2" height="9.7" d="M106.365 154.745h15.873v2.84h-15.873v-2.84z"/><path id="XMLID_82_" x="457.4" y="430.4" fill-rule="evenodd" clip-rule="evenodd" fill="#B7DCEC" width="47.3" height="72.6" d="M133.953 126.045h13.852v21.262h-13.852v-21.262z"/><path id="XMLID_81_" x="438.6" y="430.4" fill-rule="evenodd" clip-rule="evenodd" fill="#DBDCDC" width="4.5" height="107.7" d="M128.447 126.045h1.318v31.54h-1.318v-31.54z"/><path id="XMLID_80_" fill-rule="evenodd" clip-rule="evenodd" fill="#FFF3F1" d="M133.748 113.072c1.113 0 2.05 0.908 2.05 2.05a2.031 2.031 0 0 1 -2.05 2.02 2.024 2.024 0 0 1 -2.02 -2.02c-0.03 -1.142 0.908 -2.05 2.02 -2.05"/><path id="XMLID_79_" fill-rule="evenodd" clip-rule="evenodd" fill="#FFF3F1" d="M139.84 113.072c1.113 0 2.05 0.908 2.05 2.05a2.031 2.031 0 0 1 -2.05 2.02c-1.113 0 -2.05 -0.908 -2.05 -2.02 0.03 -1.142 0.937 -2.05 2.05 -2.05"/><path id="XMLID_78_" fill-rule="evenodd" clip-rule="evenodd" fill="#FF6239" d="M145.96 113.072c1.113 0 2.05 0.908 2.05 2.05a2.031 2.031 0 0 1 -2.05 2.02c-1.113 0 -2.05 -0.908 -2.05 -2.02a2.056 2.056 0 0 1 2.05 -2.05"/><path id="XMLID_77_" x="213" y="189" fill-rule="evenodd" clip-rule="evenodd" fill="#4A4587" width="111" height="23.4" d="M62.378 55.35h32.507v6.853H62.378V55.35z"/><path id="XMLID_76_" x="213" y="223.6" fill-rule="evenodd" clip-rule="evenodd" fill="#FFF3F1" width="111" height="110.4" d="M62.378 65.483h32.507v32.332H62.378V65.483z"/><path id="XMLID_75_" x="221.5" y="261.1" fill-rule="evenodd" clip-rule="evenodd" fill="#B7DCEC" width="39.4" height="60.5" d="M64.868 76.465h11.538v17.718H64.868V76.465z"/><path id="XMLID_74_" x="221.5" y="245.2" fill-rule="evenodd" clip-rule="evenodd" fill="#DBDCDC" width="61.9" height="8.1" d="M64.868 71.808h18.128v2.372H64.868v-2.372z"/><path id="XMLID_73_" x="221.5" y="231" fill-rule="evenodd" clip-rule="evenodd" fill="#DBDCDC" width="61.9" height="8.1" d="M64.868 67.65h18.128v2.372H64.868V67.65z"/><path id="XMLID_72_" x="270.7" y="261.1" fill-rule="evenodd" clip-rule="evenodd" fill="#FF6239" width="45.2" height="8.1" d="M79.277 76.465h13.237v2.372H79.277v-2.372z"/><path id="XMLID_71_" x="270.7" y="274.2" fill-rule="evenodd" clip-rule="evenodd" fill="#DBDCDC" width="45.2" height="8.1" d="M79.277 80.302h13.237v2.372H79.277v-2.372z"/><path id="XMLID_70_" x="270.7" y="287.3" fill-rule="evenodd" clip-rule="evenodd" fill="#DBDCDC" width="45.2" height="8.1" d="M79.277 84.138h13.237v2.372H79.277v-2.372z"/><path id="XMLID_69_" x="270.7" y="300.4" fill-rule="evenodd" clip-rule="evenodd" fill="#DBDCDC" width="45.2" height="8.1" d="M79.277 87.975h13.237v2.372H79.277v-2.372z"/><path id="XMLID_68_" x="270.7" y="313.5" fill-rule="evenodd" clip-rule="evenodd" fill="#DBDCDC" width="45.2" height="8.1" d="M79.277 91.81h13.237v2.372H79.277v-2.372z"/><path id="XMLID_67_" fill-rule="evenodd" clip-rule="evenodd" fill="#FFF3F1" d="M82.79 57.458a1.343 1.343 0 0 1 1.347 1.347c0 0.732 -0.585 1.347 -1.347 1.347s-1.347 -0.585 -1.347 -1.347 0.585 -1.347 1.347 -1.347"/><path id="XMLID_66_" fill-rule="evenodd" clip-rule="evenodd" fill="#FFF3F1" d="M86.803 57.458a1.343 1.343 0 0 1 1.347 1.347 1.343 1.343 0 0 1 -1.347 1.347 1.343 1.343 0 0 1 -1.347 -1.347c0 -0.762 0.585 -1.347 1.347 -1.347"/><path id="XMLID_65_" fill-rule="evenodd" clip-rule="evenodd" fill="#FF6239" d="M90.815 57.458a1.343 1.343 0 0 1 1.347 1.347 1.343 1.343 0 0 1 -1.347 1.347 1.343 1.343 0 0 1 -1.347 -1.347c0 -0.762 0.615 -1.347 1.347 -1.347"/><path id="XMLID_64_" x="1135.2" y="177.9" fill-rule="evenodd" clip-rule="evenodd" fill="#4A4587" width="111" height="23.4" d="M332.452 52.1h32.507v6.853h-32.507v-6.853z"/><path id="XMLID_63_" x="1135.2" y="212.5" fill-rule="evenodd" clip-rule="evenodd" fill="#FFF3F1" width="111" height="110.4" d="M332.452 62.232h32.507v32.332h-32.507V62.232z"/><path id="XMLID_62_" x="1143.7" y="250" fill-rule="evenodd" clip-rule="evenodd" fill="#B7DCEC" width="39.4" height="60.5" d="M334.94 73.215h11.538v17.718h-11.538V73.215z"/><path id="XMLID_61_" x="1143.7" y="234.1" fill-rule="evenodd" clip-rule="evenodd" fill="#DBDCDC" width="61.9" height="8.1" d="M334.94 68.558h18.128v2.372h-18.128v-2.372z"/><path id="XMLID_60_" x="1143.7" y="219.9" fill-rule="evenodd" clip-rule="evenodd" fill="#DBDCDC" width="61.9" height="8.1" d="M334.94 64.4h18.128v2.372h-18.128v-2.372z"/><path id="XMLID_59_" x="1192.9" y="250" fill-rule="evenodd" clip-rule="evenodd" fill="#FF6239" width="45.2" height="8.1" d="M349.35 73.215h13.237v2.372h-13.237v-2.372z"/><path id="XMLID_58_" x="1192.9" y="263.1" fill-rule="evenodd" clip-rule="evenodd" fill="#DBDCDC" width="45.2" height="8.1" d="M349.35 77.05h13.237v2.372h-13.237v-2.372z"/><path id="XMLID_57_" x="1192.9" y="276.2" fill-rule="evenodd" clip-rule="evenodd" fill="#DBDCDC" width="45.2" height="8.1" d="M349.35 80.887h13.237v2.372h-13.237v-2.372z"/><path id="XMLID_56_" x="1192.9" y="289.3" fill-rule="evenodd" clip-rule="evenodd" fill="#DBDCDC" width="45.2" height="8.1" d="M349.35 84.723h13.237v2.372h-13.237v-2.372z"/><path id="XMLID_55_" x="1192.9" y="302.4" fill-rule="evenodd" clip-rule="evenodd" fill="#DBDCDC" width="45.2" height="8.1" d="M349.35 88.56h13.237v2.372h-13.237V88.56z"/><path id="XMLID_54_" fill-rule="evenodd" clip-rule="evenodd" fill="#DBDCDC" d="M352.863 54.208a1.343 1.343 0 0 1 1.347 1.347 1.343 1.343 0 0 1 -1.347 1.347 1.343 1.343 0 0 1 -1.347 -1.347c0 -0.762 0.615 -1.347 1.347 -1.347"/><path id="XMLID_53_" fill-rule="evenodd" clip-rule="evenodd" fill="#DBDCDC" d="M356.875 54.208a1.343 1.343 0 0 1 1.347 1.347c0 0.732 -0.585 1.347 -1.347 1.347s-1.347 -0.585 -1.347 -1.347 0.615 -1.347 1.347 -1.347"/><path id="XMLID_52_" fill-rule="evenodd" clip-rule="evenodd" fill="#FF6239" d="M360.888 54.208a1.343 1.343 0 0 1 1.347 1.347 1.343 1.343 0 0 1 -1.347 1.347 1.343 1.343 0 0 1 -1.347 -1.347c0.03 -0.762 0.615 -1.347 1.347 -1.347"/><path id="XMLID_51_" fill="none" stroke="#FFFFFF" stroke-width="0.8301328571428573" stroke-miterlimit="22.9256" stroke-dasharray="5.67,2.83" points="
		333.9,278.8 399.6,278.8 399.6,370.3 	" d="M97.785 81.648h19.24v26.797"/><path id="XMLID_50_" fill="none" stroke="#FFFFFF" stroke-width="0.8301328571428573" stroke-miterlimit="22.9256" stroke-dasharray="5.67,2.83" points="
		543.5,497.5 609.1,497.5 609.1,406.1 	" d="M159.168 145.697h19.212v-26.767"/><path id="XMLID_49_" fill="none" stroke="#FFFFFF" stroke-width="0.8301328571428573" stroke-miterlimit="22.9256" stroke-dasharray="5.67,2.83" points="
		836.3,269.6 927.9,269.6 927.9,361 	" d="M244.917 78.955h26.825v26.767"/><path id="XMLID_48_" fill="none" stroke="#FFFFFF" stroke-width="0.8301328571428573" stroke-miterlimit="22.9256" stroke-dasharray="5.67,2.83" points="
		1149.7,455.5 1195.5,455.5 1195.5,337.4 	" d="M336.698 133.397h13.413V98.81"/><path id="XMLID_47_" fill-rule="evenodd" clip-rule="evenodd" fill="#FF6239" d="M194.603 170.003h21.437c13.15 0 23.897 10.748 23.897 23.897v55.76h-68.412v-56.58c0 -12.68 10.397 -23.077 23.077 -23.077"/><path id="XMLID_46_" fill-rule="evenodd" clip-rule="evenodd" fill="#EC5B37" d="M167.28 249.66h76.875c5.125 0 9.342 4.188 9.342 9.342 0 5.125 -4.188 9.342 -9.342 9.342H167.28c-5.125 0 -9.342 -4.188 -9.342 -9.342 0.03 -5.155 4.217 -9.342 9.342 -9.342"/><path id="XMLID_45_" fill-rule="evenodd" clip-rule="evenodd" fill="#B2C9E8" points="597.1,916.2 619,916.2 555,1145.5 
		546.8,1145.5 	" d="M174.865 268.315h6.413l-18.743 67.152h-2.402Z"/><path id="XMLID_44_" fill-rule="evenodd" clip-rule="evenodd" fill="#B2C9E8" points="807.8,916.2 785.9,916.2 850,1145.5 
		858.2,1145.5 	" d="M236.57 268.315h-6.413l18.772 67.152h2.402Z"/><path id="XMLID_43_" fill-rule="evenodd" clip-rule="evenodd" fill="#4A4587" d="M204.59 160.72a8.302 8.302 0 0 0 -1.465 0.117l-15.932 2.402a13.417 13.417 0 0 0 -1.055 0.235c-5.067 0.85 -14.175 5.623 -15.522 11.715l-7.322 32.77h13.09l5.008 -19.855v41.79h46.449v-41.79l5.008 19.855 9.4 5.008 3.66 -5.008 -7.322 -32.77c-1.347 -6.092 -10.455 -10.865 -15.522 -11.715a13.897 13.897 0 0 0 -1.055 -0.235l-15.932 -2.402c-0.527 -0.058 -0.995 -0.117 -1.493 -0.117"/><path id="XMLID_42_" fill-rule="evenodd" clip-rule="evenodd" fill="#E8E5EC" d="M204.59 160.72a8.302 8.302 0 0 0 -1.465 0.117l-7.117 1.083v64.663h17.162v-64.663l-7.117 -1.083c-0.498 -0.058 -0.967 -0.117 -1.465 -0.117"/><path id="XMLID_41_" fill-rule="evenodd" clip-rule="evenodd" fill="#832C44" d="M214.518 110.817c0 5.477 -4.452 9.928 -9.928 9.928s-9.928 -4.452 -9.928 -9.928 4.452 -9.928 9.928 -9.928c5.477 -0.03 9.928 4.422 9.928 9.928"/><path id="XMLID_40_" fill-rule="evenodd" clip-rule="evenodd" fill="#FFA982" d="M198.938 141.157v21.965c0 8.405 11.275 8.405 11.275 0v-21.965c0.03 -8.405 -11.275 -8.405 -11.275 0"/><path id="XMLID_39_" fill-rule="evenodd" clip-rule="evenodd" fill="#EA876B" d="M198.938 134.333v21.965c0 8.405 11.275 8.405 11.275 0v-21.965c0.03 -8.435 -11.275 -8.435 -11.275 0"/><path id="XMLID_38_" fill-rule="evenodd" clip-rule="evenodd" fill="#FFA982" d="M221.985 135.447c0 12.593 -7.79 23.663 -17.395 23.663s-17.395 -11.07 -17.395 -23.663 7.79 -22.785 17.395 -22.785 17.395 10.192 17.395 22.785"/><path id="XMLID_37_" fill-rule="evenodd" clip-rule="evenodd" fill="#FFA982" d="M217.68 136.178c-0.498 2.313 1.025 4.598 3.368 5.095 2.343 0.498 4.657 -0.967 5.155 -3.28 0.498 -2.313 -1.025 -4.598 -3.368 -5.095 -2.372 -0.498 -4.657 0.967 -5.155 3.28"/><path id="XMLID_36_" fill-rule="evenodd" clip-rule="evenodd" fill="#A3434C" d="M204.59 109.675c-15.873 0 -20.12 11.012 -20.12 24.6 11.217 0 15.023 -15.433 15.023 -15.433s0.908 6.267 5.798 10.923c4.158 3.953 11.627 6.648 19.417 4.51 0 -13.588 -4.247 -24.6 -20.12 -24.6"/><path id="XMLID_35_" fill-rule="evenodd" clip-rule="evenodd" fill="#FFA982" d="M191.47 136.705c0.205 2.372 -1.582 4.452 -3.983 4.657 -2.402 0.205 -4.51 -1.552 -4.715 -3.895 -0.205 -2.372 1.582 -4.452 3.983 -4.657 2.402 -0.205 4.51 1.552 4.715 3.895"/><path id="XMLID_34_" fill-rule="evenodd" clip-rule="evenodd" fill="#EA876B" d="M199.172 149.885c3.133 2.343 7.615 2.343 10.748 0 0.878 -0.645 0.03 -2.138 -0.85 -1.465 -2.695 2.02 -6.297 2.02 -9.02 0 -0.908 -0.673 -1.757 0.82 -0.878 1.465"/><path id="XMLID_33_" fill-rule="evenodd" clip-rule="evenodd" fill="#832C44" d="M211.18 137.848a1.888 1.888 0 0 0 1.875 1.875 1.888 1.888 0 0 0 1.875 -1.875 1.888 1.888 0 0 0 -1.875 -1.875 1.888 1.888 0 0 0 -1.875 1.875"/><path id="XMLID_32_" fill-rule="evenodd" clip-rule="evenodd" fill="#832C44" d="M217.095 130.907c-2.372 -1.26 -5.037 -1.435 -7.555 -0.468 -0.645 0.263 -0.352 1.318 0.293 1.055 2.255 -0.878 4.568 -0.79 6.707 0.352 0.645 0.322 1.2 -0.615 0.557 -0.937"/><path id="XMLID_31_" fill-rule="evenodd" clip-rule="evenodd" fill="#832C44" d="M198 137.848a1.888 1.888 0 0 1 -1.875 1.875 1.888 1.888 0 0 1 -1.875 -1.875 1.888 1.888 0 0 1 1.875 -1.875 1.888 1.888 0 0 1 1.875 1.875"/><path id="XMLID_30_" fill-rule="evenodd" clip-rule="evenodd" fill="#832C44" d="M192.612 131.845c2.138 -1.142 4.452 -1.23 6.707 -0.352 0.645 0.263 0.937 -0.79 0.293 -1.055 -2.518 -0.995 -5.155 -0.79 -7.555 0.468 -0.615 0.322 -0.058 1.26 0.557 0.937"/><path id="XMLID_29_" fill-rule="evenodd" clip-rule="evenodd" fill="#EA876B" d="M206.757 142.885c-0.175 1.61 -4.305 1.582 -4.48 0 -0.058 -0.615 -1.025 -0.615 -0.967 0 0.322 2.87 6.062 2.87 6.385 0 0.088 -0.585 -0.878 -0.585 -0.937 0"/><path id="XMLID_28_" fill-rule="evenodd" clip-rule="evenodd" fill="#BC6E5D" points="668.5,727.2 319,727.2 166.7,807.2 
		668.5,807.2 1238.2,807.2 1085.9,727.2 	" d="M195.775 212.965H93.422l-44.602 23.428h313.796l-44.602 -23.428Z"/><path id="XMLID_27_" x="166.7" y="807.2" fill-rule="evenodd" clip-rule="evenodd" fill="#A46051" width="1071.5" height="35.1" d="M48.82 236.395h313.796v10.28H48.82v-10.28z"/><path id="XMLID_26_" x="265.9" y="842.2" fill-rule="evenodd" clip-rule="evenodd" fill="#78463C" width="47.1" height="364.8" d="M77.87 246.645h13.793v106.835H77.87V246.645z"/><path id="XMLID_25_" x="1092" y="842.2" fill-rule="evenodd" clip-rule="evenodd" fill="#78463C" width="47.1" height="364.8" d="M319.8 246.645h13.793v106.835H319.8V246.645z"/><path id="XMLID_24_" x="197.4" y="842.2" fill-rule="evenodd" clip-rule="evenodd" fill="#A46051" width="47.1" height="439.3" d="M57.81 246.645h13.793v128.652H57.81V246.645z"/><path id="XMLID_23_" x="197.4" y="842.2" fill-rule="evenodd" clip-rule="evenodd" fill="#8E5347" width="47.1" height="26.3" d="M57.81 246.645h13.793v7.702H57.81v-7.702z"/><path id="XMLID_22_" x="1160.4" y="842.2" fill-rule="evenodd" clip-rule="evenodd" fill="#A46051" width="47.1" height="439.3" d="M339.832 246.645h13.793v128.652h-13.793V246.645z"/><path id="XMLID_21_" x="1160.4" y="842.2" fill-rule="evenodd" clip-rule="evenodd" fill="#8E5347" width="47.1" height="26.3" d="M339.832 246.645h13.793v7.702h-13.793v-7.702z"/><path id="XMLID_20_" fill-rule="evenodd" clip-rule="evenodd" fill="#27275B" d="M178.965 242.34h48.205c0 4.685 -3.397 12.153 -9.078 12.153h-29.667c-5.71 0 -9.46 -7.438 -9.46 -12.153"/><path id="XMLID_19_" fill-rule="evenodd" clip-rule="evenodd" fill="#4A4587" d="M183.182 242.34h40.268c-0.557 3.69 -3.28 8.375 -7.527 8.375h-24.893c-4.275 0 -7.233 -4.685 -7.848 -8.375"/><path id="XMLID_18_" fill-rule="evenodd" clip-rule="evenodd" fill="#4A4587" d="m206.67 327.648 -1.903 -19.885c-0.058 -0.585 -0.498 -1.465 -0.937 -1.67 -3.72 -1.61 -7.585 -1.67 -11.538 0 -0.527 0.205 -0.878 1.113 -0.937 1.787l-1.875 19.768c-0.908 9.05 18.04 9.05 17.19 0"/><path id="XMLID_17_" fill-rule="evenodd" clip-rule="evenodd" fill="#FFA982" d="M194.72 242.34h23.223l15.932 42.933c2.46 6.618 22.375 15.2 19.007 20.383 -4.978 7.615 -17.22 2.753 -26.562 -2.987 -3.778 -2.313 -4.247 -6.97 -1.757 -12.125 -4.598 -11.07 -12.417 -15.843 -17.66 -25.8 0.322 17.425 -2.958 28.583 -3.222 45.012 1.142 4.217 1.493 8.112 0.908 11.07 -3.778 -3.632 -8.112 -3.515 -12.183 0 -0.673 -2.84 -0.468 -6.618 0.732 -11.07 -1.992 -12.71 -8.64 -53.768 1.582 -67.415"/><path id="XMLID_16_" fill-rule="evenodd" clip-rule="evenodd" fill="#EA876B" d="M194.72 242.34h23.223l9.02 24.337c-4.773 1.377 -9.108 4.042 -13.003 8.112 -2.518 -3.017 -5.008 -6.15 -7.087 -10.103 0.058 3.925 -0.03 7.555 -0.263 10.982 -5.71 -1.962 -11.48 -1.992 -17.308 0.147 -0.557 -13.355 0.38 -26.738 5.418 -33.473"/><path id="XMLID_15_" fill-rule="evenodd" clip-rule="evenodd" fill="#EA876B" d="M223.07 297.397c-0.205 -2.05 0.293 -4.393 1.493 -6.882 -4.598 -11.07 -12.417 -15.843 -17.66 -25.8 7.585 6.765 15.55 13.12 20.383 22.345 1.728 3.31 1.405 7.117 2.84 9.928l-7.058 0.41z"/><path id="XMLID_14_" fill-rule="evenodd" clip-rule="evenodd" fill="#4A4587" d="M245.59 296.05c4.832 3.602 8.962 7.028 7.263 9.605 -4.978 7.615 -17.22 2.753 -26.562 -2.987 -3.778 -2.313 -4.247 -6.97 -1.757 -12.125 2.577 7.585 24.483 18.625 23.048 8.493 -0.088 -0.82 -1.113 -2.343 -1.992 -2.987"/><path id="XMLID_13_" fill-rule="evenodd" clip-rule="evenodd" fill="#4A4587" points="561.2,693.7 585.7,693.9 602.2,710.1 
		591.6,727.2 539.2,727.2 	" d="m164.352 203.155 7.175 0.058 4.832 4.745 -3.105 5.008h-15.345Z"/><path id="XMLID_12_" fill-rule="evenodd" clip-rule="evenodd" fill="#27275B" points="669.3,552.9 649.9,573.9 663.8,584.4 
		645.5,602.2 669.3,686.9 	" d="m196.01 161.92 -5.682 6.15 4.07 3.075 -5.36 5.213 6.97 24.805Z"/><path id="XMLID_11_" fill-rule="evenodd" clip-rule="evenodd" fill="#27275B" points="727.9,552.9 747.3,573.9 733.4,584.4 
		751.7,602.2 727.9,686.9 	" d="m213.17 161.92 5.682 6.15 -4.07 3.075 5.36 5.213 -6.97 24.805Z"/><path id="XMLID_10_" fill-rule="evenodd" clip-rule="evenodd" fill="#DBDCDC" d="m173.782 218.062 -21.262 8.435c-0.703 0.263 -1.347 0.615 -1.347 1.347s0.673 1.61 1.347 1.347l21.262 -8.435c0.703 -0.263 1.347 -0.615 1.347 -1.347s-0.645 -1.61 -1.347 -1.347"/><path id="XMLID_135_" fill-rule="evenodd" clip-rule="evenodd" fill="#FFF3F1" points="594.4,744.5 517.5,775.3 515.8,770.8 
		507.8,750.4 504.8,742.6 526,735.7 	" d="m174.075 218.032 -22.52 9.02 -0.498 -1.318 -2.343 -5.975 -0.878 -2.285 6.208 -2.02Z"/><path id="XMLID_133_" fill-rule="evenodd" clip-rule="evenodd" fill="#4A4587" points="552.4,756.1 515.8,770.8 507.8,750.4 	
		" d="m161.775 221.43 -10.718 4.305 -2.343 -5.975Z"/><path id="XMLID_8_" fill-rule="evenodd" clip-rule="evenodd" fill="#DBDCDC" d="m146.428 186.198 -43.225 -4.335c-2.285 -0.235 -7 2.548 -6.53 5.975l4.305 31.775c0.44 3.338 3.543 5.828 6.413 6.062l43.782 3.632c2.285 0.175 4.51 -1.903 4.188 -4.188l-4.745 -34.733c-0.293 -2.285 -1.875 -3.953 -4.188 -4.188"/><path id="XMLID_7_" fill-rule="evenodd" clip-rule="evenodd" fill="#FFF3F1" d="m144.935 186.052 -41.732 -4.188c-2.285 -0.235 -7 2.548 -6.53 5.975l4.305 31.775c0.44 3.338 3.543 5.828 6.413 6.062l43.548 3.632c1.465 -0.703 2.49 -2.225 2.285 -3.865l-4.832 -35.26c-0.263 -2.08 -1.552 -3.632 -3.455 -4.13"/><path id="XMLID_6_" fill-rule="evenodd" clip-rule="evenodd" fill="#DBDCDC" d="m237.653 218.062 21.262 8.435c0.703 0.263 1.347 0.615 1.347 1.347s-0.673 1.61 -1.347 1.347l-21.262 -8.435c-0.703 -0.263 -1.347 -0.615 -1.347 -1.347s0.673 -1.61 1.347 -1.347"/><path id="XMLID_136_" fill-rule="evenodd" clip-rule="evenodd" fill="#FFF3F1" points="900.2,742.6 895.8,753.7 888.5,772.5 
		887.4,775.3 810.5,744.5 878.9,735.7 	" d="m263.63 217.475 -1.288 3.25 -2.138 5.505 -0.322 0.82 -22.52 -9.02 20.032 -2.577Z"/><path id="XMLID_132_" fill-rule="evenodd" clip-rule="evenodd" fill="#27275B" points="895.8,753.7 888.5,772.5 854.7,759 	" d="m262.342 220.727 -2.138 5.505 -9.898 -3.953Z"/><path id="XMLID_4_" fill-rule="evenodd" clip-rule="evenodd" fill="#DBDCDC" d="m265.007 186.198 43.225 -4.335c2.285 -0.235 7 2.548 6.53 5.975l-4.305 31.775c-0.44 3.338 -3.543 5.828 -6.413 6.062l-43.782 3.632c-2.285 0.175 -4.51 -1.903 -4.188 -4.188l4.745 -34.733c0.322 -2.285 1.903 -3.953 4.188 -4.188"/><path id="XMLID_3_" fill-rule="evenodd" clip-rule="evenodd" fill="#FFF3F1" d="m266.5 186.052 41.732 -4.188c2.285 -0.235 7 2.548 6.53 5.975l-4.305 31.775c-0.44 3.338 -3.543 5.828 -6.413 6.062l-43.548 3.632c-1.465 -0.703 -2.49 -2.225 -2.285 -3.865l4.832 -35.26c0.293 -2.08 1.552 -3.632 3.455 -4.13"/><path id="XMLID_2_" fill-rule="evenodd" clip-rule="evenodd" fill="#FFF3F1" d="M168.158 184.353h72.833c2.343 0 4.568 1.933 4.247 4.247l-4.89 36.168c-0.322 2.313 -1.903 4.247 -4.247 4.247h-63.549c-2.343 0 -3.983 -1.933 -4.247 -4.247L163.912 188.6c-0.293 -2.313 1.903 -4.247 4.247 -4.247"/></g></svg>